<svg width="65" height="50" viewBox="0 0 65 50" fill="none" xmlns="http://www.w3.org/2000/svg">
<g id="&#208;&#180;&#208;&#190;&#209;&#129;&#209;&#130;&#208;&#176;&#208;&#178;&#208;&#186;&#208;&#176; 1" clip-path="url(#clip0_195_341)">
<g id="Group">
<g id="Group_2">
<path id="Vector" d="M26.4 28.3V3.09998H7.2L0 19.8V38H8C9.5 35.1 12.5 33.2 15.9 33.2C19.3 33.2 22.3 35.2 23.8 38H43.7C45.2 35.1 48.2 33.2 51.6 33.2C55 33.2 58 35.2 59.5 38H64.6V28.4H26.4V28.3Z" fill="#FFC021"/>
<path id="Vector_2" d="M61.6996 0H30.0996V28.3H61.6996V0Z" fill="#FF8A41"/>
<g id="Group_3">
<path id="Vector_3" d="M16.3 20.5C17.5 20.5 18.6 19.5 18.6 18.2V9.19996C18.6 7.99996 17.6 6.89996 16.3 6.89996H13.1C11.9 6.89996 10.5 7.79996 9.99996 8.99996L6.29996 18.3C5.79996 19.5 6.49996 20.4 7.69996 20.4H16.3V20.5Z" fill="#20CFC1"/>
<path id="Vector_4" d="M16.3002 21.1H7.70017C6.90017 21.1 6.20017 20.8 5.80017 20.2C5.40017 19.6 5.40017 18.9 5.70017 18.1L9.40017 8.79999C10.0002 7.39999 11.6002 6.29999 13.1002 6.29999H16.3002C17.9002 6.29999 19.2002 7.59999 19.2002 9.19999V18.2C19.2002 19.9 17.9002 21.1 16.3002 21.1ZM13.1002 7.59999C12.1002 7.59999 11.0002 8.39999 10.6002 9.29999L6.90017 18.6C6.80017 19 6.80017 19.3 6.90017 19.5C7.10017 19.7 7.30017 19.8 7.70017 19.8H16.3002C17.2002 19.8 17.9002 19.1 17.9002 18.2V9.19999C17.9002 8.29999 17.2002 7.59999 16.3002 7.59999H13.1002Z" fill="#F27729"/>
</g>
<g id="Group_4">
<path id="Vector_5" d="M56.9173 47.3572C59.8072 44.4673 59.8072 39.7819 56.9173 36.8921C54.0275 34.0022 49.3421 34.0022 46.4523 36.8921C43.5624 39.7819 43.5624 44.4673 46.4523 47.3572C49.3421 50.247 54.0275 50.247 56.9173 47.3572Z" fill="#855641"/>
<path id="Vector_6" d="M51.6998 50C47.3998 50 43.7998 46.5 43.7998 42.1C43.7998 37.7 47.2998 34.2 51.6998 34.2C56.0998 34.2 59.5998 37.7 59.5998 42.1C59.5998 46.5 56.0998 50 51.6998 50ZM51.6998 35.2C47.8998 35.2 44.6998 38.3 44.6998 42.2C44.6998 46.1 47.7998 49.2 51.6998 49.2C55.5998 49.2 58.6998 46.1 58.6998 42.2C58.6998 38.3 55.5998 35.2 51.6998 35.2Z" fill="#714836"/>
</g>
<g id="Group_5">
<path id="Vector_7" d="M51.7004 45.9001C49.6004 45.9001 47.9004 44.2 47.9004 42.1C47.9004 40 49.6004 38.3 51.7004 38.3C53.8004 38.3 55.5004 40 55.5004 42.1C55.5004 44.2 53.8004 45.9001 51.7004 45.9001Z" fill="#FFC021"/>
<path id="Vector_8" d="M51.7 46.3C49.4 46.3 47.5 44.4 47.5 42.1C47.5 39.8 49.4 37.9 51.7 37.9C54 37.9 55.9 39.8 55.9 42.1C55.9 44.5 54 46.3 51.7 46.3ZM51.7 38.8C49.9 38.8 48.4 40.3 48.4 42.1C48.4 43.9 49.9 45.4 51.7 45.4C53.5 45.4 55 43.9 55 42.1C55 40.3 53.6 38.8 51.7 38.8Z" fill="#F2A416"/>
</g>
<g id="Group_6">
<path id="Vector_9" d="M23.3996 42.1C23.3996 46.2 20.0996 49.5 15.9996 49.5C11.8996 49.5 8.59961 46.2 8.59961 42.1C8.59961 38 11.8996 34.7 15.9996 34.7C19.9996 34.7 23.3996 38 23.3996 42.1Z" fill="#855641"/>
<path id="Vector_10" d="M15.9 50C11.6 50 8 46.5 8 42.1C8 37.7 11.5 34.2 15.9 34.2C20.2 34.2 23.8 37.7 23.8 42.1C23.8 46.5 20.3 50 15.9 50ZM15.9 35.2C12.1 35.2 8.9 38.3 8.9 42.2C8.9 46.1 12 49.2 15.9 49.2C19.7 49.2 22.9 46.1 22.9 42.2C22.9 38.3 19.8 35.2 15.9 35.2Z" fill="#714836"/>
</g>
<g id="Group_7">
<path id="Vector_11" d="M15.9006 45.9001C13.8006 45.9001 12.1006 44.2 12.1006 42.1C12.1006 40 13.8006 38.3 15.9006 38.3C18.0006 38.3 19.7006 40 19.7006 42.1C19.7006 44.2 18.0006 45.9001 15.9006 45.9001Z" fill="#FFC021"/>
<path id="Vector_12" d="M15.9002 46.3C13.6002 46.3 11.7002 44.4 11.7002 42.1C11.7002 39.8 13.6002 37.9 15.9002 37.9C18.2002 37.9 20.1002 39.8 20.1002 42.1C20.2002 44.5 18.3002 46.3 15.9002 46.3ZM15.9002 38.8C14.1002 38.8 12.6002 40.3 12.6002 42.1C12.6002 43.9 14.1002 45.4 15.9002 45.4C17.7002 45.4 19.2002 43.9 19.2002 42.1C19.3002 40.3 17.8002 38.8 15.9002 38.8Z" fill="#F2A416"/>
</g>
<path id="Vector_13" d="M63.8998 29.1H1.7998V32.3H63.8998V29.1Z" fill="#F2A416"/>
<path id="Vector_14" d="M30.1002 0H28.2002V28.3H30.1002V0Z" fill="#F27729"/>
<path id="Vector_15" d="M33.8004 0H31.9004V28.3H33.8004V0Z" fill="#F27729"/>
<path id="Vector_16" d="M37.6002 0H35.7002V28.3H37.6002V0Z" fill="#F27729"/>
<path id="Vector_17" d="M41.3004 0H39.4004V28.3H41.3004V0Z" fill="#F27729"/>
<path id="Vector_18" d="M44.9996 0H43.0996V28.3H44.9996V0Z" fill="#F27729"/>
<path id="Vector_19" d="M48.6998 0H46.7998V28.3H48.6998V0Z" fill="#F27729"/>
<path id="Vector_20" d="M52.4 0H50.5V28.3H52.4V0Z" fill="#F27729"/>
<path id="Vector_21" d="M56.1998 0H54.2998V28.3H56.1998V0Z" fill="#F27729"/>
<path id="Vector_22" d="M59.9 0H58V28.3H59.9V0Z" fill="#F27729"/>
<path id="Vector_23" d="M63.6002 0H61.7002V28.3H63.6002V0Z" fill="#F27729"/>
</g>
</g>
</g>
<defs>
<clipPath id="clip0_195_341">
<rect width="64.8" height="50" fill="white"/>
</clipPath>
</defs>
</svg>
