<svg width="41" height="50" viewBox="0 0 41 50" fill="none" xmlns="http://www.w3.org/2000/svg">
<g id="&#208;&#186;&#209;&#131;&#208;&#191;&#208;&#184;&#209;&#130;&#208;&#184; 1" clip-path="url(#clip0_195_471)">
<g id="Group">
<g id="Group_2">
<g id="Group_3">
<g id="Group_4">
<path id="Vector" d="M28.5998 14.4C28.2998 14.4 27.9998 14.1 27.9998 13.8V8.1C27.9998 3.3 24.3998 1.1 20.9998 1.1C17.5998 1.1 13.9998 3.3 13.9998 8.1V13.8C13.9998 14.1 13.6998 14.4 13.3998 14.4C13.0998 14.4 12.7998 14.1 12.7998 13.8V8.1C12.8998 2.8 16.9998 0 20.9998 0C24.9998 0 29.0998 2.8 29.0998 8.1V13.8C29.0998 14.1 28.8998 14.4 28.5998 14.4Z" fill="#3D3A70"/>
</g>
</g>
<path id="Vector_2" d="M40.2992 45.9L33.4992 48.1L31.1992 13L37.9992 11.5L40.2992 45.9Z" fill="#F2A416"/>
<path id="Vector_3" d="M36.1996 50H0.599609L2.89961 15H33.8996L36.1996 50Z" fill="#FFC021"/>
<g id="Group_5">
<g id="Group_6">
<path id="Vector_4" d="M18.3996 42.8C12.6996 42.8 8.09961 38.2 8.09961 32.5C8.09961 26.8 12.6996 22.2 18.3996 22.2V23.3C13.2996 23.3 9.19961 27.4 9.19961 32.5C9.19961 37.6 13.2996 41.7 18.3996 41.7V42.8Z" fill="#706B96"/>
</g>
<g id="Group_7">
<path id="Vector_5" d="M18.4 42.8C15.4 42.8 13 38.3 13 32.5C13 26.7 15.4 22.2 18.4 22.2V23.3C16.1 23.3 14.1 27.5 14.1 32.5C14.1 37.5 16.1 41.7 18.4 41.7V42.8Z" fill="#706B96"/>
</g>
<g id="Group_8">
<path id="Vector_6" d="M18.8998 22.8H17.7998V42.3H18.8998V22.8Z" fill="#706B96"/>
</g>
<g id="Group_9">
<path id="Vector_7" d="M18.3994 42.8V41.7C20.6994 41.7 22.6994 37.5 22.6994 32.5C22.6994 27.5 20.6994 23.3 18.3994 23.3V22.2C21.3994 22.2 23.7994 26.7 23.7994 32.5C23.7994 38.3 21.3994 42.8 18.3994 42.8Z" fill="#706B96"/>
</g>
<g id="Group_10">
<path id="Vector_8" d="M18.3994 42.8V41.7C23.4994 41.7 27.5994 37.6 27.5994 32.5C27.5994 27.4 23.4994 23.3 18.3994 23.3V22.2C24.0994 22.2 28.6994 26.8 28.6994 32.5C28.6994 38.2 24.0994 42.8 18.3994 42.8Z" fill="#706B96"/>
</g>
<g id="Group_11">
<g id="Group_12">
<path id="Vector_9" d="M28.1992 31.9H8.69922V33H28.1992V31.9Z" fill="#706B96"/>
</g>
</g>
<g id="Group_13">
<path id="Vector_10" d="M18.3996 29.1C15.3996 29.1 12.3996 28.5 10.0996 27.2L10.6996 26.2C14.9996 28.6 21.8996 28.6 26.1996 26.2L26.7996 27.2C24.3996 28.4 21.3996 29.1 18.3996 29.1Z" fill="#706B96"/>
</g>
<g id="Group_14">
<path id="Vector_11" d="M26.1 38.6C21.8 36.2 14.9 36.2 10.6 38.6L10 37.6C14.6 35 22 35 26.6 37.6L26.1 38.6Z" fill="#706B96"/>
</g>
</g>
<g id="Group_15">
<path id="Vector_12" d="M2.89941 15H7.19941V13.3L2.89941 15Z" fill="#FF8A41"/>
<path id="Vector_13" d="M32.999 13.5V15H33.899L32.999 13.5Z" fill="#FF8A41"/>
<path id="Vector_14" d="M37.999 11.5H6.99902L7.19902 13.3V15H32.999V13.5L37.999 11.5Z" fill="#F27729"/>
</g>
<g id="Group_16">
<g id="Group_17">
<path id="Vector_15" d="M25.9992 18.6C25.6992 18.6 25.3992 18.3 25.3992 18V9.30001C25.3992 4.50001 21.7992 2.30001 18.3992 2.30001C14.9992 2.30001 11.3992 4.50001 11.3992 9.30001V18C11.3992 18.3 11.0992 18.6 10.7992 18.6C10.4992 18.6 10.1992 18.3 10.1992 18V9.30001C10.1992 4.00001 14.2992 1.20001 18.2992 1.20001C22.2992 1.20001 26.3992 4.00001 26.3992 9.30001V18C26.4992 18.3 26.2992 18.6 25.9992 18.6Z" fill="#706B96"/>
</g>
</g>
</g>
</g>
</g>
<defs>
<clipPath id="clip0_195_471">
<rect width="40.9" height="50" fill="white"/>
</clipPath>
</defs>
</svg>
