<svg width="250" height="50" viewBox="0 0 250 50" fill="none" xmlns="http://www.w3.org/2000/svg">
<g id="logo 1">
<g id="Group">
<g id="Group_2">
<path id="Vector" d="M82.5754 11.05H63.8504L63.5754 18.225C63.5004 19.8 63.4004 21.25 63.2504 22.575C63.1004 23.9 62.8754 25.05 62.5754 26.025C62.2754 27 61.8754 27.75 61.3754 28.3C60.8754 28.85 60.2504 29.1 59.4754 29.075H58.7754V38.975H64.8254V34.3H79.7004V38.975H85.7004V29.075H82.5504V11.05H82.5754ZM67.7504 28.275C68.1004 27.575 68.3754 26.75 68.5754 25.775C68.7754 24.8 68.9504 23.725 69.0754 22.55C69.2004 21.375 69.2754 20.125 69.3254 18.775L69.4254 16.25H76.1004V29.05H67.3004C67.4504 28.825 67.6004 28.575 67.7504 28.275Z" fill="#1E4284"/>
<path id="Vector_2" d="M95.375 24.95H105.7V20.05H95.375V16.125H107.1V11.05H88.875V34.275H107.525V29.2H95.375V24.95Z" fill="#1E4284"/>
<path id="Vector_3" d="M136.3 29.075H130.275V11.05H123.825V29.075H117.75V11.05H111.275V34.275H142.75V11.05H136.3V29.075Z" fill="#1E4284"/>
<path id="Vector_4" d="M154.25 24.95H164.575V20.05H154.25V16.125H165.95V11.05H147.75V34.275H166.4V29.2H154.25V24.95Z" fill="#1E4284"/>
<path id="Vector_5" d="M189.075 23.1C188.5 22.7 187.825 22.375 187.05 22.125C187.4 21.95 187.75 21.75 188.05 21.5C189.5 20.425 190.2 18.95 190.2 17.075C190.2 15.15 189.425 13.675 187.9 12.6C186.35 11.55 184.2 11.025 181.425 11.025H170.15V34.25H182.075C185.05 34.25 187.35 33.65 188.925 32.45C190.5 31.25 191.3 29.65 191.3 27.6C191.275 25.65 190.55 24.125 189.075 23.1ZM176.6 15.75H180.775C181.7 15.75 182.4 15.95 182.875 16.325C183.35 16.7 183.575 17.275 183.575 18.025C183.575 18.775 183.35 19.35 182.875 19.725C182.4 20.1 181.725 20.3 180.775 20.3H176.6V15.75ZM183.925 28.95C183.45 29.35 182.725 29.575 181.775 29.575H176.6V24.775H181.775C182.725 24.775 183.45 24.975 183.925 25.35C184.4 25.725 184.65 26.325 184.65 27.125C184.65 27.925 184.4 28.55 183.925 28.95Z" fill="#1E4284"/>
<path id="Vector_6" d="M219.85 29.075H213.85V11.05H207.375V29.075H201.3V11.05H194.825V34.275H226.325V11.05H219.85V29.075Z" fill="#1E4284"/>
<path id="Vector_7" d="M237.801 29.2V24.95H248.126V20.05H237.801V16.125H249.501V11.05H231.301V34.275H249.951V29.2H237.801Z" fill="#1E4284"/>
</g>
<g id="Group_3">
<path id="Vector_8" d="M27.1748 25.725L29.2998 27.725L29.3248 27.75L30.3748 28.775L32.5248 30.875L34.0748 32.4C35.0248 33.375 36.1748 33.35 37.3248 32.15L45.9998 23.675C46.9748 22.725 46.9998 21.175 46.0498 20.2L37.5998 11.7L36.4248 10.45C36.3748 10.475 36.3248 10.525 36.2748 10.575C36.1748 10.65 36.0748 10.725 35.9498 10.825C35.8748 10.875 35.8248 10.925 35.7748 10.975C35.6748 11.05 35.5748 11.175 35.4498 11.325C35.3248 11.475 35.1998 11.625 35.0248 11.8C33.9248 13.125 32.8748 14.575 31.8498 16.125C29.3998 19.95 27.8748 23.325 27.1748 25.725Z" fill="#F1E12F"/>
<path id="Vector_9" d="M18.6753 17.5L20.2753 19.125L21.1503 20.025L23.3003 22.075C23.5003 21.525 23.7503 20.975 24.0003 20.425C24.7003 18.9 25.5253 17.4 26.4753 15.9C27.4253 14.4 28.4753 13.025 29.5503 11.775C30.3503 10.85 31.1003 10.1 31.8753 9.42501C32.3753 8.97501 32.9003 8.55001 33.4003 8.17501C33.5503 8.07501 33.7253 7.95001 33.9253 7.82501L33.3253 7.17501L32.5503 6.37501L31.3253 5.12501C30.8503 4.65001 30.2003 4.42501 29.5503 4.52501L24.2003 5.35001C23.7753 5.40001 23.3753 5.60001 23.0753 5.90001L22.2753 6.67501L21.4003 7.52501L19.6253 9.275C19.5753 9.32501 19.5253 9.37501 19.5003 9.42501C19.3003 9.67501 19.1503 9.95001 19.0753 10.25C19.0753 10.3 19.0503 10.325 19.0503 10.375L18.1003 15.7C18.0003 16.35 18.2003 17.025 18.6753 17.5Z" fill="#F1E12F"/>
<path id="Vector_10" d="M23.4005 8.47502C23.8255 8.90002 23.8255 9.60002 23.3755 10.025C22.9505 10.45 22.2505 10.45 21.8255 10C21.4005 9.57502 21.4005 8.87502 21.8505 8.45002C22.2755 8.02502 22.9755 8.05002 23.4005 8.47502Z" fill="white"/>
<g id="Group_4">
<path id="Vector_11" d="M16.7501 2.25001C18.6751 2.17501 21.0751 6.42501 22.3251 9.50001C22.4001 9.65001 22.6001 9.70001 22.7251 9.60001L23.0751 9.30001C23.2501 9.12501 23.3251 8.87501 23.2251 8.65001C22.2251 6.27501 19.6501 0.975012 16.7251 1.10001C15.6251 1.15001 14.8501 1.80001 14.6251 2.85001C14.1501 5.00001 16.0251 8.87501 19.0251 10.4L19.5501 9.37501C17.0751 8.12501 15.3751 4.82501 15.7501 3.10001C15.8501 2.55001 16.1751 2.27501 16.7501 2.25001Z" fill="#1E4284"/>
</g>
<path id="Vector_12" d="M23.25 28.825C23.25 28.65 23.25 28.475 23.275 28.3C23.35 27.425 23.5 26.575 23.7 25.75C23.925 24.875 24.175 24.025 24.475 23.2C24.75 22.45 25.05 21.725 25.375 21.025C26.075 19.525 26.875 18.075 27.75 16.675C28.65 15.3 29.625 13.95 30.7 12.725C31.375 11.95 32.1 11.2 32.875 10.5C33.325 10.1 33.8 9.70001 34.3 9.35001C34.5 9.20001 34.725 9.05001 34.95 8.92501C35.425 8.62501 35.925 8.35001 36.475 8.12501C36.6 8.07501 36.75 8.02501 36.875 7.97501C37.15 7.90001 37.425 7.82501 37.7 7.80001C38.125 7.75001 38.575 7.77501 38.975 7.92501C39.375 8.07501 39.75 8.35001 40 8.67501C40.25 9.02501 40.425 9.40001 40.525 9.80001C40.725 10.6 40.75 11.425 40.675 12.225C40.675 11.425 40.625 10.6 40.375 9.85001C40.25 9.47501 40.075 9.10001 39.825 8.82501C39.575 8.52501 39.25 8.32501 38.875 8.22501C38.15 8.02501 37.525 8.25001 36.825 8.57501C36.3 8.80001 35.9 9.07501 35.425 9.42501C35.425 9.42501 35.425 9.42501 35.4 9.42501C35.225 9.55001 35.025 9.72501 34.85 9.85001C34.5 10.125 34.275 10.5 33.95 10.825C32.85 12.175 31.725 13.675 30.625 15.35C28.45 18.7 26.825 22 25.95 24.65C25.4 26.325 25.15 27.75 25.25 28.8C25.25 28.825 25.25 28.85 25.25 28.875C25.25 28.9 25.25 28.925 25.25 28.95C25.275 29.475 25.35 30 25.525 30.4C25.625 30.675 25.775 30.9 25.925 31.05C26.075 31.2 26.225 31.275 26.4 31.3C26.575 31.35 26.825 31.325 27.125 31.25L26.75 30.675L26.575 30.4L28.175 30.35L31.2 30.225L29.05 34.325L28.475 33.4C28.45 33.4 28.45 33.425 28.425 33.425C28.225 33.5 28 33.55 27.8 33.6C27.7 33.625 27.6 33.625 27.5 33.65C26.975 33.725 26.375 33.75 25.775 33.575C25.175 33.4 24.6 33.025 24.225 32.575C23.825 32.125 23.6 31.6 23.45 31.125C23.3 30.3 23.25 29.55 23.25 28.825Z" fill="#1E4284"/>
<path id="Vector_13" d="M31.0748 45.925H27.2498C26.7248 45.925 26.2998 45.5 26.2998 44.975C26.2998 44.45 26.7248 44.025 27.2498 44.025H31.0748C31.5998 44.025 32.0248 44.45 32.0248 44.975C32.0248 45.5 31.5998 45.925 31.0748 45.925Z" fill="#1E4284"/>
<path id="Vector_14" d="M42.4002 46.3C41.7502 46.3 41.1752 45.875 40.9752 45.25C40.7252 44.45 41.1752 43.625 41.9752 43.375C43.1252 43.025 43.5252 42.25 43.6752 41.825C43.8252 41.35 43.8002 40.95 43.6002 40.55C43.3002 39.975 42.6752 39.625 41.9502 39.625H21.5752C19.3752 39.625 17.3752 38.25 16.6002 36.2L7.9752 13.675C7.6752 12.9 6.9002 12.35 6.0752 12.35H1.5752C0.750195 12.35 0.0751953 11.675 0.0751953 10.85C0.0751953 10.025 0.750195 9.35001 1.5752 9.35001H6.0752C8.1502 9.35001 10.0502 10.65 10.8002 12.6L19.4002 35.075C19.7502 35.975 20.6252 36.575 21.5752 36.575H41.9252C43.7502 36.575 45.4502 37.575 46.2502 39.15C46.8252 40.275 46.9002 41.525 46.5002 42.75C46.2252 43.525 45.3502 45.425 42.8252 46.2C42.7002 46.275 42.5502 46.3 42.4002 46.3Z" fill="#1E4284"/>
<path id="Vector_15" d="M21.8 48.9C19.625 48.9 17.875 47.125 17.875 44.975C17.875 42.825 19.65 41.05 21.8 41.05C23.975 41.05 25.725 42.825 25.725 44.975C25.725 47.125 23.975 48.9 21.8 48.9ZM21.8 42.95C20.7 42.95 19.775 43.85 19.775 44.975C19.775 46.1 20.675 47 21.8 47C22.925 47 23.825 46.1 23.825 44.975C23.825 43.85 22.9 42.95 21.8 42.95Z" fill="#1E4284"/>
<path id="Vector_16" d="M21.8006 46.3C22.5324 46.3 23.1256 45.7068 23.1256 44.975C23.1256 44.2432 22.5324 43.65 21.8006 43.65C21.0688 43.65 20.4756 44.2432 20.4756 44.975C20.4756 45.7068 21.0688 46.3 21.8006 46.3Z" fill="#F1E12F"/>
<path id="Vector_17" d="M36.5002 48.9C34.3252 48.9 32.5752 47.125 32.5752 44.975C32.5752 42.825 34.3502 41.05 36.5002 41.05C38.6752 41.05 40.4252 42.825 40.4252 44.975C40.4252 47.125 38.6752 48.9 36.5002 48.9ZM36.5002 42.95C35.4002 42.95 34.4752 43.85 34.4752 44.975C34.4752 46.1 35.3752 47 36.5002 47C37.6252 47 38.5252 46.1 38.5252 44.975C38.5252 43.85 37.6252 42.95 36.5002 42.95Z" fill="#1E4284"/>
<path id="Vector_18" d="M36.4998 46.3C37.2316 46.3 37.8248 45.7068 37.8248 44.975C37.8248 44.2432 37.2316 43.65 36.4998 43.65C35.768 43.65 35.1748 44.2432 35.1748 44.975C35.1748 45.7068 35.768 46.3 36.4998 46.3Z" fill="#F1E12F"/>
</g>
<path id="Vector_19" d="M39.0506 27.125C39.0756 27.45 38.9506 27.725 38.7256 27.975C38.5256 28.2 38.3006 28.35 38.0006 28.4C37.8506 28.425 37.7006 28.4 37.5256 28.375C37.2756 28.325 37.0256 28.225 36.8006 28.125C36.5506 28 36.3006 27.85 36.0506 27.675C35.7506 27.475 35.5006 27.25 35.2506 26.975C35.1006 26.825 34.9506 26.65 34.8006 26.475C34.5506 26.175 34.3256 25.875 34.1256 25.525C33.9506 25.2 33.8256 24.875 33.8256 24.5C33.8256 24.175 33.9006 23.875 34.0756 23.6C34.1756 23.45 34.3256 23.325 34.5256 23.275C34.6506 23.25 34.7506 23.275 34.8506 23.325C34.7006 23 34.5756 22.675 34.4006 22.35C34.2756 22.1 34.0756 21.875 33.8756 21.675C33.7506 21.55 33.6256 21.4 33.5006 21.275C33.3756 21.15 33.2256 21.025 33.1006 20.9C33.0506 20.85 33.0256 20.825 32.9756 20.775C32.8256 20.65 32.6506 20.525 32.5006 20.375C32.2256 20.125 31.9506 19.875 31.6756 19.6C31.5506 19.475 31.4756 19.3 31.4756 19.1C31.4756 18.875 31.5756 18.725 31.7506 18.625C31.8756 18.55 32.0256 18.5 32.1756 18.425C32.2506 18.4 32.3256 18.4 32.4006 18.4C32.5256 18.4 32.6506 18.4 32.7756 18.4C33.2006 18.4 33.5756 18.575 33.9006 18.85C34.2506 19.15 34.6256 19.45 34.9756 19.75C35.3256 20.025 35.7256 20.225 36.1756 20.3C36.3006 20.325 36.4006 20.35 36.5256 20.375C36.5756 20.4 36.6256 20.375 36.6506 20.325C36.7756 20.2 36.9006 20.05 37.0256 19.925C37.2756 19.675 37.5256 19.425 37.8006 19.175C38.0756 18.925 38.3756 18.7 38.7006 18.55C38.9006 18.475 39.1006 18.4 39.3256 18.425C39.5256 18.45 39.7006 18.525 39.8506 18.675C39.9756 18.8 40.0756 18.9 40.1756 19.05C40.2256 19.1 40.3006 19.15 40.3756 19.175C40.5256 19.25 40.6506 19.325 40.8006 19.4C41.0006 19.525 41.1506 19.725 41.2256 19.95C41.2756 20.125 41.4006 20.225 41.5256 20.3C41.5506 20.3 41.5506 20.325 41.5756 20.325C41.8756 20.425 42.0256 20.675 42.1506 20.95C42.2256 21.15 42.2756 21.375 42.3506 21.575C42.3756 21.625 42.3756 21.65 42.4256 21.675C42.8256 22.05 42.9256 22.5 42.8256 23.025C42.7756 23.225 42.7256 23.425 42.6506 23.6C42.6006 23.75 42.5006 23.875 42.4256 24C42.2506 24.25 42.1006 24.5 41.9256 24.75C41.7256 25 41.5006 25.225 41.3006 25.45C41.2006 25.55 41.1006 25.65 41.0006 25.75C40.8506 25.9 40.6756 26.05 40.5256 26.2C40.4006 26.325 40.2756 26.45 40.1506 26.55C39.9256 26.725 39.7006 26.875 39.4006 26.925C39.3006 27.1 39.1756 27.1 39.0506 27.125ZM40.2006 19.725C40.2006 19.575 40.1506 19.45 40.0256 19.35C39.9506 19.275 39.8756 19.225 39.8006 19.175C39.7006 19.1 39.6256 19.025 39.5256 18.975C39.2506 18.85 38.9506 18.875 38.6756 19C38.2006 19.2 37.8006 19.525 37.4256 19.875C37.2006 20.075 37.0006 20.325 36.8006 20.55C36.8006 20.55 36.7756 20.575 36.7506 20.575C36.4756 20.65 36.2256 20.7 35.9256 20.625C35.6006 20.55 35.3006 20.4 35.0506 20.2C34.7756 19.975 34.5256 19.75 34.2756 19.525C34.0756 19.325 33.8756 19.175 33.6256 19.05C33.3006 18.875 32.9756 18.75 32.6006 18.725C32.2506 18.7 31.9506 18.825 31.7256 19.1C31.6256 19.225 31.6256 19.35 31.7506 19.45C32.0256 19.725 32.3256 19.975 32.6256 20.2C32.8256 20.35 33.0506 20.5 33.2506 20.65C33.6506 20.975 33.9506 21.35 34.2506 21.75C34.4506 22 34.6006 22.275 34.7506 22.575C34.8756 22.775 35.0006 23 35.0756 23.225C35.1756 23.45 35.2256 23.7 35.3006 23.95C35.3006 23.975 35.3006 23.975 35.3006 24C35.3006 24.1 35.3006 24.225 35.3006 24.325C35.3256 24.525 35.4006 24.725 35.5006 24.9C35.6256 25.15 35.8006 25.35 35.9756 25.55C36.2256 25.825 36.5006 26.1 36.8006 26.3C37.1006 26.5 37.4256 26.625 37.8006 26.625C37.8256 26.625 37.8506 26.625 37.8756 26.65C38.1006 26.75 38.3256 26.825 38.5756 26.875C38.9006 26.925 39.2256 26.9 39.5006 26.725C39.9506 26.475 40.3256 26.175 40.6756 25.8C40.8256 25.625 41.0006 25.475 41.1506 25.325C41.2256 25.25 41.3256 25.175 41.4006 25.075C41.5256 24.925 41.6256 24.775 41.7506 24.625C41.9506 24.375 42.1256 24.125 42.2756 23.825C42.4006 23.575 42.5006 23.325 42.5006 23.025C42.5006 23 42.5006 23 42.5006 22.975C42.5256 22.95 42.5506 22.9 42.5506 22.875C42.5506 22.775 42.5506 22.675 42.5506 22.6C42.5006 22.275 42.3506 22.05 42.0506 21.875C42.0256 21.875 42.0256 21.825 42.0256 21.8C42.0256 21.6 42.0006 21.4 41.9256 21.2C41.8756 21.05 41.7756 20.9 41.6506 20.775C41.5006 20.65 41.3256 20.675 41.2006 20.85C41.1756 20.9 41.1256 20.95 41.1006 21C41.1506 20.8 41.1006 20.625 41.0506 20.45C40.9756 20.175 40.8256 19.95 40.6506 19.75C40.5756 19.675 40.5006 19.65 40.4006 19.675C40.3756 19.675 40.2756 19.7 40.2006 19.725Z" fill="#1E4284"/>
<path id="Vector_20" d="M36.2256 20.9C36.1006 20.95 36.0006 21 35.8756 21.05C35.8506 21.05 35.8506 21.1 35.8256 21.125C36.2756 21 36.7256 20.925 37.0756 20.575C37.3006 20.35 37.5006 20.125 37.7506 19.925C38.0756 19.65 38.4006 19.375 38.8006 19.25C39.2256 19.1 39.4756 19.175 39.8006 19.5C39.9006 19.6 39.9506 19.7 40.0006 19.85C40.0256 19.925 40.0756 19.95 40.1506 19.925C40.1756 19.925 40.1756 19.9 40.2006 19.9C40.4006 19.8 40.5256 19.825 40.6756 20.025C40.8006 20.2 40.8756 20.375 40.9756 20.55C41.0256 20.65 41.0506 20.775 41.0256 20.9C41.0006 21 41.0256 21.075 41.0756 21.175C41.1756 21.075 41.2756 21 41.3756 20.9C41.4006 20.875 41.4256 20.875 41.4756 20.875C41.6506 20.925 41.7256 21.075 41.7756 21.25C41.8256 21.4 41.8756 21.575 41.8506 21.725C41.8506 21.85 41.9006 21.95 42.0006 22.025C42.1006 22.125 42.1756 22.2 42.2506 22.3C42.3756 22.45 42.3756 22.625 42.3506 22.8C42.2256 22.7 42.1006 22.625 41.9506 22.525C41.8256 22.45 41.7256 22.35 41.6756 22.225C41.6256 22.1 41.5506 22 41.4756 21.9C41.4506 21.85 41.3756 21.825 41.3256 21.775C41.2756 21.75 41.2256 21.725 41.1506 21.725C40.9756 21.675 40.8506 21.55 40.8006 21.375C40.7506 21.25 40.7006 21.1 40.6256 20.975C40.5256 20.8 40.3256 20.675 40.1756 20.55C39.9506 20.4 39.7506 20.225 39.5256 20.075C39.4756 20.025 39.4256 19.975 39.3756 19.9C39.3506 20.05 39.4006 20.2 39.4756 20.325C39.6006 20.5 39.7506 20.6 39.9006 20.7C40.0256 20.775 40.1256 20.85 40.2506 20.925C40.3756 21 40.4506 21.125 40.4756 21.275C40.5006 21.375 40.5256 21.5 40.6006 21.575C40.6506 21.65 40.7256 21.725 40.8256 21.775C41.1006 21.9 41.2756 22.125 41.4756 22.325C41.6256 22.475 41.7756 22.6 41.9256 22.75C42.0256 22.85 42.1506 22.925 42.2256 23.075C42.2506 23.125 42.2506 23.175 42.2506 23.2C42.2006 23.525 42.0256 23.8 41.8256 24.075C41.4756 24.475 41.1506 24.9 40.8006 25.3C40.4756 25.675 40.1506 26 39.7256 26.275C39.3756 26.5 39.0006 26.575 38.6006 26.5C38.1256 26.425 37.6756 26.275 37.2756 26C37.2006 25.95 37.1506 25.9 37.1006 25.85C37.0756 25.85 37.0506 25.875 37.0256 25.875C37.2756 26.075 37.5006 26.25 37.7756 26.45C37.5506 26.35 37.3256 26.275 37.1256 26.125C36.4756 25.65 36.0256 25.025 35.6506 24.325V24.3C35.7256 24.425 35.8256 24.525 35.9006 24.65C36.0006 24.775 36.0756 24.875 36.1756 25C36.2756 25.125 36.3756 25.225 36.4756 25.325C36.3506 25.15 36.2006 24.975 36.1006 24.775C35.9006 24.425 35.7256 24.05 35.6006 23.675C35.3506 22.975 35.0506 22.275 34.6006 21.675C34.2756 21.25 33.9256 20.875 33.5256 20.525C33.2256 20.275 32.9006 20.05 32.6006 19.825C32.4506 19.725 32.3256 19.6 32.2256 19.475C32.1006 19.35 32.1256 19.225 32.3006 19.15C32.5006 19.05 32.7006 19.025 32.9006 19.05C33.1756 19.1 33.4506 19.225 33.6756 19.375C34.1006 19.65 34.4506 19.975 34.8006 20.325C34.9756 20.475 35.1506 20.65 35.3256 20.775C35.5506 20.95 35.8006 20.975 36.0756 20.925C36.1256 20.9 36.1756 20.9 36.2256 20.9Z" fill="#1E4284"/>
</g>
</g>
</svg>
