<?xml version="1.0" encoding="utf-8"?>
<!-- Generator: Adobe Illustrator 27.0.0, SVG Export Plug-In . SVG Version: 6.00 Build 0)  -->
<svg version="1.1" id="Шар_1" xmlns="http://www.w3.org/2000/svg" xmlns:xlink="http://www.w3.org/1999/xlink" x="0px" y="0px"
	 viewBox="0 0 99 25" style="enable-background:new 0 0 99 25;" xml:space="preserve">
<style type="text/css">
	.st0{fill-rule:evenodd;clip-rule:evenodd;fill:#0055A3;}
	.st1{fill-rule:evenodd;clip-rule:evenodd;fill:#E30036;}
</style>
<g id="meest_logo">
	<path id="Fill_1" class="st0" d="M72.6,10.6c0-2.4,4.6-1.7,5.9-1.1L79,5.4C74.3,4,67.2,5,67.2,11.1c-0.1,6,8.7,5.2,8.7,8
		c0,3-6.9,1.5-8.4,0.6l-0.8,4.1c5.1,2.3,14.9,1.8,14.6-5.1C81.3,12.1,72.6,13.3,72.6,10.6L72.6,10.6z M60.8,12.7
		c0-5.3-7.2-5.4-7.1,0H60.8z M53.7,16.8c0.4,4.7,7.7,3.9,10.9,2.9l0.8,4.1c-7.4,2.8-17.3,1-17.3-8.7c0-12.9,18.4-14.3,18.4-0.7
		c0,1-0.1,1.9-0.2,2.4H53.7z M79.5,9.5h2.8v8.1c0,4.3,1.1,7.4,5.8,7.4c1.7,0,3.1-0.4,3.9-0.7v-4.5c-2.8,0.5-4.2,0.7-4.2-3V0l-5.5,0
		v5.4h-2.4L79.5,9.5z M88.7,9.5H92l1.1-2.1l-1.1-2h-3.3V9.5z M16.9,24.6l4.8-19.2L22.9,25h5.4L26.7,0h-8.4l-4.1,16.8L10,0H1.6L0,25
		h5.4L6.7,5.4l4.8,19.2H16.9z"/>
	<path id="Combined_Shape" class="st1" d="M99,7.4L94.9,0h-4.1l4.1,7.4l-4.1,7.5h4.1L99,7.4z M41.5,12.7c0-5.3-7.2-5.4-7.1,0H41.5z
		 M45.2,19.7c-3.2,1-10.5,1.8-10.9-2.9h12.6c0.1-0.4,0.2-1.3,0.2-2.4c0-13.6-18.4-12.2-18.4,0.7c0,9.7,9.9,11.5,17.3,8.7L45.2,19.7z
		"/>
</g>
</svg>
