<svg width="50" height="50" viewBox="0 0 50 50" fill="none" xmlns="http://www.w3.org/2000/svg">
<g id="&#208;&#190;&#208;&#177;&#208;&#188;&#209;&#150;&#208;&#189; 1">
<g id="Group">
<g id="Group_2">
<g id="Group_3">
<g id="Group_4">
<path id="Vector" d="M43.8 31.9C43.6 32.7 43.3 33.4 43.1 34.2C42.7 35.2 42.2 36.2 41.7 37.1C40.8 38.6 39.7 40 38.5 41.2L38.7 41.4C38.9 41.6 40.8 43.7 40.8 43.6C42.5 42 43.9 40 45.1 37.9C45.7 36.8 46.2 35.6 46.6 34.4C46.8 33.9 46.9 33.4 47.1 32.9C47.1 32.7 47.1 32.8 46.9 32.7C45.8 32.4 44.8 32.2 43.8 31.9Z" fill="#F2A416"/>
<path id="Vector_2" d="M44.4 25.4C45.5 25.3 46.6 25.2 47.7 25.2C47.5 22.2 46.7 19.3 45.4 16.5C44.4 17 43.4 17.5 42.5 18C43.6 20.3 44.3 22.8 44.4 25.4Z" fill="#FFC021"/>
<path id="Vector_3" d="M39.6 8.90002C38.9 9.80002 38.2 10.6 37.5 11.5C38.3 12.2 39 12.9 39.7 13.7C40 14 40.3 14.4 40.6 14.8L40.8 14.6C41.6 14 42.4 13.4 43.2 12.8C42.1 11.3 40.9 10.1 39.6 8.90002Z" fill="#FFC021"/>
<path id="Vector_4" d="M23.8996 10.5L32.2996 5.2L23.8996 0V3.5C21.7996 3.6 19.7996 4 17.8996 4.6C12.9996 6.4 8.79965 9.6 5.99965 14.1C4.39965 16.7 3.09965 19.8 2.69965 22.9C2.49965 24.5 2.29965 26.1 2.39965 27.8C2.49965 29.1 2.59965 30.3 2.79965 31.5C3.79965 31.3 4.79965 31.1 5.79965 30.9C5.99965 30.9 5.99965 30.9 5.99965 30.7C5.89965 30.2 5.79965 29.6 5.69965 29.1C5.59965 27.9 5.59965 26.7 5.59965 25.4C5.59965 24.2 5.89965 22.9 6.19965 21.7C6.49965 20.5 6.89965 19.3 7.49965 18.1C8.59965 15.8 9.99965 13.8 11.7996 12.1C15.0996 9 19.3996 7.1 23.7996 6.8V10.5H23.8996Z" fill="#F27729"/>
</g>
<g id="Group_5">
<path id="Vector_5" d="M13.5994 42.7C15.5994 44.2 17.7994 45.3 20.1994 45.9C21.3994 46.2 22.5994 46.5 23.7994 46.5C24.9994 46.6 26.2994 46.6 27.4994 46.4C27.7994 46.3 28.0994 46.3 28.3994 46.2C27.2994 46.4 26.0994 46.5 24.8994 46.5C19.7994 46.4 14.8994 44.3 11.3994 40.6C10.4994 39.7 9.69941 38.7 8.99941 37.6C8.79941 37.3 8.59941 37 8.39941 36.7C9.79941 39.1 11.4994 41.1 13.5994 42.7Z" fill="#F27729"/>
<path id="Vector_6" d="M9.29922 43.3C9.39922 43.4 9.39922 43.4 9.49922 43.5C9.39922 43.4 9.29922 43.3 9.19922 43.2C9.19922 43.2 9.29922 43.2 9.29922 43.3Z" fill="#F27729"/>
<path id="Vector_7" d="M11.2 44.9C11 44.7 10.7 44.5 10.5 44.3C10.7 44.6 10.9 44.8 11.2 44.9Z" fill="#F27729"/>
<path id="Vector_8" d="M6.8998 40.4C7.0998 40.7 7.2998 40.9 7.4998 41.2C7.1998 40.9 6.9998 40.5 6.7998 40.2C6.7998 40.2 6.7998 40.3 6.8998 40.4Z" fill="#F27729"/>
<path id="Vector_9" d="M12.6994 46.1C12.3994 45.9 12.1994 45.7 11.8994 45.6C12.1994 45.7 12.4994 45.9 12.6994 46.1Z" fill="#F27729"/>
<path id="Vector_10" d="M7.79941 41.6C7.69941 41.5 7.59941 41.3 7.39941 41.2C7.59941 41.3 7.69941 41.4 7.79941 41.6Z" fill="#F27729"/>
<path id="Vector_11" d="M33.7996 48.2C33.6996 48.2 33.5996 48.3 33.5996 48.3C33.6996 48.3 33.7996 48.3 33.7996 48.2Z" fill="#F27729"/>
<path id="Vector_12" d="M28.3994 46.3C28.5994 46.3 28.6994 46.2 28.8994 46.2C28.7994 46.2 28.5994 46.3 28.3994 46.3Z" fill="#F27729"/>
<path id="Vector_13" d="M9.1998 43.2C8.8998 42.9 8.5998 42.6 8.2998 42.2C8.5998 42.5 8.8998 42.8 9.1998 43.2Z" fill="#F27729"/>
<path id="Vector_14" d="M11.8996 45.6C11.5996 45.4 11.3996 45.2 11.0996 45C11.3996 45.2 11.6996 45.4 11.8996 45.6Z" fill="#F27729"/>
<path id="Vector_15" d="M15.5992 47.7C15.0992 47.5 14.6992 47.2 14.1992 47C14.9992 47.5 15.7992 47.9 16.6992 48.2C19.4992 49.4 22.6992 50.1 25.6992 49.9C27.2992 49.8 28.8992 49.7 30.3992 49.3C30.6992 49.2 30.9992 49.1 31.3992 49C31.0992 49.1 30.8992 49.1 30.5992 49.2C25.4992 50.5 20.2992 49.9 15.5992 47.7Z" fill="#F27729"/>
<path id="Vector_16" d="M10.5 44.4C10.2 44.1 9.8 43.8 9.5 43.5C9.8 43.8 10.1 44.1 10.5 44.4Z" fill="#F27729"/>
<path id="Vector_17" d="M32.4996 45.2C31.9996 45.4 31.4996 45.6 30.9996 45.8C30.2996 46 29.5996 46.1 28.9996 46.3C28.7996 46.3 28.6996 46.4 28.4996 46.4C28.1996 46.5 27.8996 46.5 27.5996 46.6C26.3996 46.8 25.1996 46.7 23.8996 46.7C22.6996 46.6 21.3996 46.4 20.2996 46.1C17.8996 45.5 15.6996 44.4 13.6996 42.9C11.5996 41.3 9.79961 39.3 8.49961 37C8.39961 37 8.39961 37 8.29961 37.1C7.39961 37.6 6.49961 38.2 5.59961 38.7C5.99961 39 6.29961 39.6 6.69961 40.1C6.89961 40.4 7.19961 40.8 7.39961 41.1C7.49961 41.2 7.59961 41.4 7.79961 41.5C7.99961 41.8 8.09961 42 8.29961 42.2C8.59961 42.5 8.89961 42.9 9.19961 43.2C9.29961 43.3 9.39961 43.4 9.49961 43.5C9.79961 43.8 10.1996 44.1 10.4996 44.4C10.6996 44.6 10.8996 44.8 11.1996 45C11.4996 45.2 11.6996 45.4 11.9996 45.6C12.2996 45.8 12.4996 46 12.7996 46.1C13.0996 46.3 13.3996 46.5 13.6996 46.7C13.8996 46.8 14.0996 46.9 14.1996 47C14.6996 47.3 15.0996 47.5 15.5996 47.7C20.2996 49.9 25.4996 50.5 30.5996 49.3C30.8996 49.2 31.0996 49.2 31.3996 49.1C31.5996 49 31.7996 49 31.9996 48.9C32.0996 48.9 32.2996 48.8 32.3996 48.8C32.7996 48.7 33.2996 48.5 33.6996 48.3C33.7996 48.3 33.8996 48.2 33.8996 48.2C33.4996 47.2 33.0996 46.3 32.6996 45.3C32.5996 45.2 32.5996 45.1 32.4996 45.2Z" fill="#FF8A41"/>
</g>
</g>
</g>
</g>
</g>
</svg>
