<svg width="50" height="50" viewBox="0 0 50 50" fill="none" xmlns="http://www.w3.org/2000/svg">
<g id="&#208;&#190;&#208;&#191;&#208;&#187;&#208;&#176;&#209;&#130;&#208;&#176; 1" clip-path="url(#clip0_195_277)">
<g id="Group">
<g id="Group_2">
<g id="Group_3">
<path id="Vector" d="M46.8004 13.1H0.400391V10.1V3C0.400391 1.4 2.80039 0 4.40039 0H39.5004L46.8004 13.1Z" fill="#F27729"/>
</g>
<g id="Group_4">
<g id="Group_5">
<path id="Vector_2" d="M16.1006 0H43.9006C45.5006 0 46.8006 1.3 46.8006 3V14.4L16.1006 0Z" fill="#F27729"/>
</g>
</g>
<g id="Group_6">
<path id="Vector_3" d="M0.400391 7.20001C0.400391 8.80001 2.80039 10.2 4.40039 10.2H43.9004C45.5004 10.2 46.8004 11.5 46.8004 13.2V47C46.8004 48.6 45.5004 50 43.9004 50H4.40039C2.80039 50 0.400391 48.7 0.400391 47V7.20001Z" fill="#FF8A41"/>
</g>
<g id="Group_7">
<g id="Group_8">
<path id="Vector_4" d="M1.5 9.69995C1.5 11.3 2.8 12.7 4.4 12.7H41.5C43.1 12.7 44.4 14 44.4 15.7V44.7C44.4 46.2999 43.1 47.7 41.5 47.7H4.4C2.8 47.7 1.5 46.4 1.5 44.7V9.69995Z" fill="#FF8A41"/>
</g>
<g id="Group_9">
<g id="Group_10">
<path id="Vector_5" d="M1.60039 11.1C1.30039 11.1 1.10039 10.9 1.00039 10.7C0.900391 10.4 0.900391 9.99998 0.900391 9.69998C0.900391 9.39998 1.20039 9.09998 1.50039 9.09998C1.80039 9.09998 2.10039 9.39998 2.10039 9.69998C2.10039 9.89998 2.10039 10.2 2.20039 10.4C2.30039 10.7 2.10039 11.1 1.80039 11.1C1.70039 11.1 1.70039 11.1 1.60039 11.1Z" fill="#855641"/>
</g>
<g id="Group_11">
<path id="Vector_6" d="M39.8002 48.2H38.0002C37.7002 48.2 37.4002 47.9 37.4002 47.6C37.4002 47.3 37.7002 47 38.0002 47H39.7002C40.0002 47 40.3002 47.3 40.3002 47.6C40.4002 47.9 40.1002 48.2 39.8002 48.2ZM35.4002 48.2H33.7002C33.4002 48.2 33.1002 47.9 33.1002 47.6C33.1002 47.3 33.4002 47 33.7002 47H35.4002C35.7002 47 36.0002 47.3 36.0002 47.6C36.0002 47.9 35.8002 48.2 35.4002 48.2ZM31.1002 48.2H29.4002C29.1002 48.2 28.8002 47.9 28.8002 47.6C28.8002 47.3 29.1002 47 29.4002 47H31.1002C31.4002 47 31.7002 47.3 31.7002 47.6C31.7002 47.9 31.4002 48.2 31.1002 48.2ZM26.8002 48.2H25.0002C24.7002 48.2 24.4002 47.9 24.4002 47.6C24.4002 47.3 24.7002 47 25.0002 47H26.7002C27.0002 47 27.3002 47.3 27.3002 47.6C27.4002 47.9 27.1002 48.2 26.8002 48.2ZM22.4002 48.2H20.7002C20.4002 48.2 20.1002 47.9 20.1002 47.6C20.1002 47.3 20.4002 47 20.7002 47H22.4002C22.7002 47 23.0002 47.3 23.0002 47.6C23.0002 47.9 22.7002 48.2 22.4002 48.2ZM18.1002 48.2H16.4002C16.1002 48.2 15.8002 47.9 15.8002 47.6C15.8002 47.3 16.1002 47 16.4002 47H18.1002C18.4002 47 18.7002 47.3 18.7002 47.6C18.7002 47.9 18.4002 48.2 18.1002 48.2ZM13.7002 48.2H12.0002C11.7002 48.2 11.4002 47.9 11.4002 47.6C11.4002 47.3 11.7002 47 12.0002 47H13.7002C14.0002 47 14.3002 47.3 14.3002 47.6C14.3002 47.9 14.0002 48.2 13.7002 48.2ZM9.40023 48.2H7.60023C7.30023 48.2 7.00023 47.9 7.00023 47.6C7.00023 47.2 7.30023 47 7.60023 47H9.30023C9.60023 47 9.90023 47.3 9.90023 47.6C10.0002 47.9 9.70023 48.2 9.40023 48.2ZM5.00023 48.2H4.40023C3.90023 48.2 3.50023 48.1 3.10023 47.9C2.80023 47.8 2.60023 47.4 2.80023 47.1C2.90023 46.8 3.30023 46.6 3.60023 46.8C3.80023 46.9 4.10023 47 4.40023 47H5.00023C5.30023 47 5.60023 47.3 5.60023 47.6C5.60023 47.9 5.40023 48.2 5.00023 48.2ZM42.4002 48C42.1002 48 41.9002 47.8 41.8002 47.6C41.7002 47.3 41.9002 46.9 42.2002 46.8C42.6002 46.7 43.0002 46.4 43.3002 46C43.5002 45.7 43.9002 45.7 44.1002 45.9C44.4002 46.1 44.4002 46.5 44.2002 46.7C43.8002 47.3 43.2002 47.7 42.5002 47.9C42.5002 48 42.4002 48 42.4002 48ZM44.4002 44.6C44.1002 44.6 43.8002 44.3 43.8002 44V42.3C43.8002 42 44.1002 41.7 44.4002 41.7C44.7002 41.7 45.0002 42 45.0002 42.3V44C45.0002 44.3 44.8002 44.6 44.4002 44.6ZM44.4002 40.3C44.1002 40.3 43.8002 40 43.8002 39.7V38C43.8002 37.7 44.1002 37.4 44.4002 37.4C44.7002 37.4 45.0002 37.7 45.0002 38V39.7C45.0002 40 44.8002 40.3 44.4002 40.3ZM44.4002 35.9C44.1002 35.9 43.8002 35.6 43.8002 35.3V33.6C43.8002 33.3 44.1002 33 44.4002 33C44.7002 33 45.0002 33.3 45.0002 33.6V35.3C45.0002 35.6 44.8002 35.9 44.4002 35.9ZM44.4002 31.6C44.1002 31.6 43.8002 31.3 43.8002 31V29.3C43.8002 29 44.1002 28.7 44.4002 28.7C44.7002 28.7 45.0002 29 45.0002 29.3V31C45.0002 31.3 44.8002 31.6 44.4002 31.6ZM44.4002 27.2C44.1002 27.2 43.8002 26.9 43.8002 26.6V24.9C43.8002 24.6 44.1002 24.3 44.4002 24.3C44.7002 24.3 45.0002 24.6 45.0002 24.9V26.6C45.0002 26.9 44.8002 27.2 44.4002 27.2ZM44.4002 22.9C44.1002 22.9 43.8002 22.6 43.8002 22.3V20.6C43.8002 20.3 44.1002 20 44.4002 20C44.7002 20 45.0002 20.3 45.0002 20.6V22.3C45.0002 22.6 44.8002 22.9 44.4002 22.9ZM44.4002 18.5C44.1002 18.5 43.8002 18.2 43.8002 17.9V16.2C43.8002 15.9 44.1002 15.6 44.4002 15.6C44.7002 15.6 45.0002 15.9 45.0002 16.2V17.9C45.0002 18.3 44.8002 18.5 44.4002 18.5ZM43.8002 14.3C43.6002 14.3 43.4002 14.2 43.3002 14.1C43.0002 13.7 42.6002 13.5 42.2002 13.3C41.9002 13.2 41.7002 12.9 41.8002 12.5C41.9002 12.2 42.2002 12 42.6002 12.1C43.3002 12.3 43.9002 12.7 44.3002 13.3C44.5002 13.6 44.5002 13.9 44.2002 14.1C44.0002 14.3 43.9002 14.3 43.8002 14.3ZM39.8002 13.2H38.0002C37.7002 13.2 37.4002 12.9 37.4002 12.6C37.4002 12.3 37.7002 12 38.0002 12H39.7002C40.0002 12 40.3002 12.3 40.3002 12.6C40.4002 13 40.1002 13.2 39.8002 13.2ZM35.4002 13.2H33.7002C33.4002 13.2 33.1002 12.9 33.1002 12.6C33.1002 12.3 33.4002 12 33.7002 12H35.4002C35.7002 12 36.0002 12.3 36.0002 12.6C36.0002 13 35.8002 13.2 35.4002 13.2ZM31.1002 13.2H29.4002C29.1002 13.2 28.8002 12.9 28.8002 12.6C28.8002 12.3 29.1002 12 29.4002 12H31.1002C31.4002 12 31.7002 12.3 31.7002 12.6C31.7002 13 31.4002 13.2 31.1002 13.2ZM26.7002 13.2H25.0002C24.7002 13.2 24.4002 12.9 24.4002 12.6C24.4002 12.3 24.7002 12 25.0002 12H26.7002C27.0002 12 27.3002 12.3 27.3002 12.6C27.3002 13 27.1002 13.2 26.7002 13.2ZM22.4002 13.2H20.7002C20.4002 13.2 20.1002 12.9 20.1002 12.6C20.1002 12.3 20.4002 12 20.7002 12H22.4002C22.7002 12 23.0002 12.3 23.0002 12.6C23.0002 13 22.7002 13.2 22.4002 13.2ZM18.0002 13.2H16.3002C16.0002 13.2 15.7002 12.9 15.7002 12.6C15.7002 12.3 16.0002 12 16.3002 12H18.0002C18.3002 12 18.6002 12.3 18.6002 12.6C18.6002 13 18.4002 13.2 18.0002 13.2ZM13.7002 13.2H12.0002C11.7002 13.2 11.4002 12.9 11.4002 12.6C11.4002 12.3 11.7002 12 12.0002 12H13.7002C14.0002 12 14.3002 12.3 14.3002 12.6C14.3002 13 14.0002 13.2 13.7002 13.2ZM9.40023 13.2H7.60023C7.30023 13.2 7.00023 13 7.00023 12.6C7.00023 12.3 7.30023 12 7.60023 12H9.30023C9.60023 12 9.90023 12.3 9.90023 12.6C10.0002 13 9.70023 13.2 9.40023 13.2ZM5.00023 13.2H4.40023C3.90023 13.2 3.50023 13.1 3.10023 12.9C2.80023 12.8 2.60023 12.4 2.80023 12.1C2.90023 11.8 3.30023 11.6 3.60023 11.8C3.80023 12 4.10023 12 4.40023 12H5.00023C5.30023 12 5.60023 12.3 5.60023 12.6C5.60023 13 5.30023 13.2 5.00023 13.2Z" fill="#855641"/>
</g>
<g id="Group_12">
<path id="Vector_7" d="M1.60039 46.1C1.30039 46.1 1.10039 45.9 1.00039 45.7C0.900391 45.4 0.900391 45 0.900391 44.7C0.900391 44.4 1.20039 44.1 1.50039 44.1C1.80039 44.1 2.10039 44.4 2.10039 44.7C2.10039 44.9 2.10039 45.2 2.20039 45.4C2.30039 45.7 2.10039 46.1 1.80039 46.1C1.70039 46.1 1.70039 46.1 1.60039 46.1Z" fill="#855641"/>
</g>
</g>
</g>
<g id="Group_13">
<path id="Vector_8" d="M45.8004 7.49999H2.50039C2.20039 7.49999 1.90039 7.19999 1.90039 6.89999C1.90039 6.59999 2.20039 6.29999 2.50039 6.29999H45.8004C46.1004 6.29999 46.4004 6.59999 46.4004 6.89999C46.4004 7.19999 46.1004 7.49999 45.8004 7.49999Z" fill="#714836"/>
</g>
<g id="Group_14">
<path id="Vector_9" d="M45.8004 4.10002H2.50039C2.20039 4.10002 1.90039 3.80002 1.90039 3.50002C1.90039 3.20002 2.20039 2.90002 2.50039 2.90002H45.8004C46.1004 2.90002 46.4004 3.20002 46.4004 3.50002C46.4004 3.80002 46.1004 4.10002 45.8004 4.10002Z" fill="#714836"/>
</g>
<g id="Group_15">
<path id="Vector_10" d="M25.9004 30.4C25.9004 32.4 27.6004 34.1 29.6004 34.1H48.1004C50.1004 34.1 50.1004 24.1 48.1004 24.1H29.6004C27.6004 24.1 25.9004 25.8 25.9004 27.8V30.4Z" fill="#FFC021"/>
<path id="Vector_11" d="M25.9004 30.4C25.9004 32.4 27.6004 34.1 29.6004 34.1H48.1004C50.1004 34.1 50.1004 24.1 48.1004 24.1H29.6004C27.6004 24.1 25.9004 25.8 25.9004 27.8V30.4Z" fill="#FFC021"/>
</g>
<path id="Vector_12" d="M32.9006 29.1C32.9006 30.4 31.8006 31.5 30.5006 31.5C29.2006 31.5 28.1006 30.4 28.1006 29.1C28.1006 27.8 29.2006 26.7 30.5006 26.7C31.8006 26.7 32.9006 27.8 32.9006 29.1Z" fill="#714836"/>
</g>
</g>
</g>
<defs>
<clipPath id="clip0_195_277">
<rect width="50" height="50" fill="white"/>
</clipPath>
</defs>
</svg>
