<svg width="41" height="50" viewBox="0 0 41 50" fill="none" xmlns="http://www.w3.org/2000/svg">
<g id="&#209;&#143;&#208;&#186;&#209;&#150;&#209;&#129;&#209;&#130;&#209;&#140; 1" clip-path="url(#clip0_195_374)">
<g id="Group">
<g id="Group_2">
<g id="Group_3">
<path id="Vector" d="M8.5 22.8V50L20.4 42.6V22.8H8.5Z" fill="#706B96"/>
<path id="Vector_2" d="M32.4004 22.8H20.4004V42.6L32.4004 50V22.8Z" fill="#3D3A70"/>
</g>
<g id="Group_4">
<path id="Vector_3" d="M20.3998 19.2L20.2998 19L20.3998 19.2Z" fill="#FF8A41"/>
<path id="Vector_4" d="M20.5004 19.2L20.4004 19V19.2H20.5004Z" fill="#FF8A41"/>
<path id="Vector_5" d="M20.5004 19.2999V19.2H20.4004L20.5004 19.2999Z" fill="#FF8A41"/>
<path id="Vector_6" d="M20.5 19.2L20.6 19L20.5 19.2Z" fill="#FF8A41"/>
<path id="Vector_7" d="M20.5 19.3L20.6 19.1L20.5 19.2V19.3Z" fill="#FF8A41"/>
<path id="Vector_8" d="M20.3998 19.2H20.2998L20.3998 19.2999V19.2Z" fill="#FF8A41"/>
<path id="Vector_9" d="M20.4004 19.2V19.2999H20.5004L20.4004 19.2Z" fill="#FF8A41"/>
<path id="Vector_10" d="M20.4 19.3L2.79995 21.1C2.79995 21.8 2.69995 22.6 2.29995 23.2C1.79995 23.9 1.79995 24.6 1.99995 25.3L20.4 19.3Z" fill="#FF8A41"/>
<path id="Vector_11" d="M3.49961 13.7C3.19961 14.4 2.79961 15 2.19961 15.4C1.49961 15.8 1.09961 16.5 1.09961 17.1L20.3996 19.2L3.49961 13.7Z" fill="#FF8A41"/>
<path id="Vector_12" d="M20.3996 19.2999L1.09961 17.2C1.09961 17.8 1.29961 18.4 1.79961 18.9C2.39961 19.4999 2.69961 20.3 2.79961 21.1L20.3996 19.2999Z" fill="#F27729"/>
<path id="Vector_13" d="M2 25.3C2.2 25.8 2.7 26.3 3.4 26.5C4.2 26.8 4.8 27.4 5.2 28.1L20.5 19.3L2 25.3Z" fill="#F27729"/>
<path id="Vector_14" d="M20.3996 19.3L5.09961 28.1C5.39961 28.8 5.59961 29.5 5.49961 30.2C5.29961 31 5.59961 31.7 6.09961 32.2L20.3996 19.4V19.3Z" fill="#FF8A41"/>
<path id="Vector_15" d="M20.4002 19.2L20.3002 19L9.0002 3.29999C8.5002 3.69999 8.2002 4.29999 8.1002 5.09999C8.1002 5.89999 7.7002 6.69999 7.2002 7.29999L20.3002 19.2H20.4002Z" fill="#F27729"/>
<path id="Vector_16" d="M20.4002 19.2V19L16.4002 0C15.8002 0.1 15.2002 0.6 14.9002 1.3C14.6002 2 13.9002 2.6 13.2002 2.9L20.3002 19L20.4002 19.2Z" fill="#F27729"/>
<path id="Vector_17" d="M13.2 2.89996C12.5 3.19996 11.7 3.29996 10.9 3.09996C10.2 2.79996 9.5 2.99996 9 3.29996L20.3 19L13.2 2.89996Z" fill="#FF8A41"/>
<path id="Vector_18" d="M6.09961 32.2C6.49961 32.6 7.09961 32.8 7.79961 32.8C8.59961 32.7 9.39961 33 10.0996 33.5L20.3996 19.4L6.09961 32.2Z" fill="#F27729"/>
<path id="Vector_19" d="M7.2 7.29999C6.7 7.79999 6 8.19999 5.2 8.29999C4.4 8.39999 3.8 8.79999 3.5 9.39999L20.3 19.1L7.2 7.29999Z" fill="#FF8A41"/>
<path id="Vector_20" d="M20.4004 19.3L20.3004 19.2L3.50039 9.39996C3.20039 9.89996 3.20039 10.6 3.50039 11.3C3.80039 12.1 3.80039 12.9 3.50039 13.7L20.4004 19.3Z" fill="#F27729"/>
<path id="Vector_21" d="M34.7996 32.2C35.2996 31.7 35.4996 31 35.3996 30.2C35.2996 29.5 35.3996 28.8 35.6996 28.1L20.5996 19.4L34.7996 32.2Z" fill="#F27729"/>
<path id="Vector_22" d="M20.5 19.3L20.6 19.4L35.7 28.1C36.1 27.3 36.7 26.7 37.5 26.4C38.2 26.2 38.6 25.7 38.8 25.2L20.5 19.3Z" fill="#FF8A41"/>
<path id="Vector_23" d="M20.5996 19.3L38.8996 25.3C39.1996 24.7 39.0996 23.9 38.5996 23.2C38.1996 22.6 37.9996 21.9 38.0996 21.2L20.5996 19.3Z" fill="#F27729"/>
<path id="Vector_24" d="M20.3996 19.4L10.0996 33.5C10.6996 34 11.1996 34.6 11.2996 35.3C11.4996 36.1 11.9996 36.6 12.5996 36.9L20.3996 19.5V19.4Z" fill="#FF8A41"/>
<path id="Vector_25" d="M28.2996 36.9C28.8996 36.7 29.3996 36.1 29.4996 35.3C29.6996 34.6 30.0996 34 30.6996 33.5L20.5996 19.5L28.2996 36.9Z" fill="#F27729"/>
<path id="Vector_26" d="M20.4998 19.4L20.3998 19.6L16.7998 36.5C17.5998 36.7 18.2998 37.1 18.6998 37.7C19.1998 38.3 19.7998 38.6 20.4998 38.6V19.6V19.4Z" fill="#FF8A41"/>
<path id="Vector_27" d="M20.5 19.4V19.6L24.1 36.5C24.9 36.3 25.7 36.4 26.4 36.8C27.1 37.2 27.8 37.2 28.3 37L20.6 19.6L20.5 19.4Z" fill="#FF8A41"/>
<path id="Vector_28" d="M12.5996 36.9C13.1996 37.1 13.7996 37.1 14.4996 36.7C15.1996 36.3 15.9996 36.2 16.7996 36.4L20.3996 19.5L12.5996 36.9Z" fill="#F27729"/>
<path id="Vector_29" d="M20.5 38.6C21.1 38.6 21.7 38.3 22.2 37.7C22.7 37.1 23.4 36.7 24.1 36.5L20.5 19.6V38.6Z" fill="#F27729"/>
<path id="Vector_30" d="M20.5 19.3L20.6 19.5L30.7 33.5C31.4 33 32.2 32.7 33 32.8C33.7 32.9 34.3 32.6 34.8 32.2L20.6 19.4L20.5 19.3Z" fill="#FF8A41"/>
<path id="Vector_31" d="M20.5 19.4L20.6 19.5L20.5 19.3V19.4Z" fill="#FF8A41"/>
<path id="Vector_32" d="M20.5 19.3L20.6 19.4L20.5 19.3Z" fill="#FF8A41"/>
<path id="Vector_33" d="M20.4004 19.4V19.6L20.5004 19.4L20.4004 19.3V19.4Z" fill="#FF8A41"/>
<path id="Vector_34" d="M20.5004 19.3H20.4004L20.5004 19.4V19.3Z" fill="#FF8A41"/>
<path id="Vector_35" d="M20.3998 19.3L20.2998 19.4H20.3998V19.3Z" fill="#FF8A41"/>
<path id="Vector_36" d="M20.4004 1.39998C19.6004 1.39998 18.8004 1.09998 18.2004 0.599976C17.7004 0.0999756 17.0004 -0.100024 16.4004 -2.44156e-05L20.4004 18.9V1.39998Z" fill="#FF8A41"/>
<path id="Vector_37" d="M33.6996 7.29996C33.0996 6.69996 32.6996 5.89996 32.6996 5.09996C32.6996 4.39996 32.3996 3.79996 31.9996 3.39996L20.5996 19.1L33.6996 7.29996Z" fill="#FF8A41"/>
<path id="Vector_38" d="M20.5 19.2L32 3.49996C31.5 2.99996 30.7 2.89996 29.9 3.09996C29.2 3.29996 28.4 3.19996 27.7 2.89996L20.6 19L20.5 19.2Z" fill="#F27729"/>
<path id="Vector_39" d="M27.6996 2.89998C26.9996 2.59998 26.2996 1.99998 25.9996 1.29998C25.6996 0.599976 25.1996 0.199976 24.5996 0.0999756L20.5996 19L27.6996 2.89998Z" fill="#FF8A41"/>
<path id="Vector_40" d="M20.5004 19.2L20.6004 19L24.6004 0.0999561C24.0004 -0.100044 23.2004 0.0999562 22.6004 0.599956C22.0004 1.09996 21.2004 1.39996 20.4004 1.39996V19L20.5004 19.2Z" fill="#F27729"/>
<path id="Vector_41" d="M20.5 19.3L39.8 17.3C39.8 16.6 39.4 15.9 38.7 15.5C38.1 15.1 37.6 14.5 37.4 13.9L20.5 19.3Z" fill="#F27729"/>
<path id="Vector_42" d="M20.5 19.3L37.4 9.59996C37.1 8.99996 36.5 8.49996 35.6 8.39996C34.9 8.29996 34.2 7.89996 33.7 7.39996L20.6 19.1L20.5 19.3Z" fill="#F27729"/>
<path id="Vector_43" d="M20.5996 19.3L38.0996 21.2C38.0996 20.3 38.4996 19.5 39.0996 18.9C39.5996 18.4 39.7996 17.8 39.7996 17.3L20.5996 19.3Z" fill="#FF8A41"/>
<path id="Vector_44" d="M37.3996 13.8C37.0996 13 37.0996 12.1 37.3996 11.3C37.6996 10.7 37.6996 10 37.3996 9.5L20.5996 19.2L37.3996 13.8Z" fill="#FF8A41"/>
</g>
<g id="Group_5">
<path id="Vector_45" d="M33.5 19.3C33.5 26.5 27.7 32.3 20.5 32.3C13.3 32.3 7.5 26.5 7.5 19.3C7.5 12.1 13.3 6.29999 20.5 6.29999C27.6 6.29999 33.5 12.1 33.5 19.3Z" fill="#FFC021"/>
<path id="Vector_46" d="M20.4 32.8C13 32.8 7 26.7 7 19.3C7 11.9 13 5.79999 20.5 5.79999C27.9 5.79999 34 11.8 34 19.3C33.9 26.7 27.9 32.8 20.4 32.8ZM20.4 6.69999C13.4 6.69999 7.8 12.4 7.8 19.3C7.8 26.3 13.5 31.9 20.4 31.9C27.4 31.9 33 26.2 33 19.3C33.1 12.4 27.4 6.69999 20.4 6.69999Z" fill="#F2A416"/>
</g>
</g>
</g>
</g>
<defs>
<clipPath id="clip0_195_374">
<rect width="40.9" height="50" fill="white"/>
</clipPath>
</defs>
</svg>
