<?xml version="1.0" encoding="utf-8"?>
<!-- Generator: Adobe Illustrator 27.0.0, SVG Export Plug-In . SVG Version: 6.00 Build 0)  -->
<svg version="1.1" id="Шар_1" xmlns="http://www.w3.org/2000/svg" xmlns:xlink="http://www.w3.org/1999/xlink" x="0px" y="0px"
	 viewBox="0 0 105 30" style="enable-background:new 0 0 105 30;" xml:space="preserve">
<style type="text/css">
	.st0{fill:#DA291C;}
</style>
<g>
	<path class="st0" d="M17.6,24.3v-6.2h-5.3v6.2h-4l4.9,4.9c1,1,2.6,1,3.6,0l4.9-4.9H17.6z M5.7,21.7V8.3l-4.9,4.9c-1,1-1,2.6,0,3.6
		L5.7,21.7z M12.3,5.7v6.2h5.3V5.7h4l-4.9-4.9c-1-1-2.6-1-3.6,0L8.3,5.7H12.3z M29.2,13.2l-4.9-4.9v13.4l4.9-4.9
		C30.2,15.8,30.2,14.2,29.2,13.2z"/>
	<g>
		<g>
			<path class="st0" d="M43.4,5.6h-4.3v-3c0-0.8-0.6-1.4-1.4-1.4h-3.7v3.1h1.7v8.7h3.4V8.9h4.3v4.3h3.4V1.3h-3.4V5.6z"/>
			<path class="st0" d="M54.7,1.1c-3.6,0-6.2,2.6-6.2,6.1s2.6,6.1,6.2,6.1c3.6,0,6.2-2.6,6.2-6.1S58.3,1.1,54.7,1.1z M54.7,10.1
				c-1.6,0-2.8-1.2-2.8-2.8s1.2-2.8,2.8-2.8c1.6,0,2.8,1.2,2.8,2.8S56.3,10.1,54.7,10.1z"/>
			<path class="st0" d="M71.4,6.9c0.8-0.5,1.4-1.4,1.4-2.4c0-1.8-1.2-3.2-3.6-3.2h-6.7v11.9h6.7c2.5,0,3.9-1.4,3.9-3.4
				C73.2,8.5,72.5,7.5,71.4,6.9z M65.7,4h2.5C69,4,69.5,4.3,69.5,5c0,0.7-0.5,1.1-1.3,1.1h-2.5V4z M68.5,10.6h-2.8V8.4h2.8
				c0.9,0,1.3,0.4,1.3,1.1C69.8,10.2,69.3,10.6,68.5,10.6z"/>
			<path class="st0" d="M78.4,1.3l-4.7,11.9h3.6l0.8-2.2h4.8l0.8,2.2h3.7L82.6,1.3H78.4z M79,8.3l1.3-3.9h0.3l1.3,3.9H79z"/>
		</g>
		<g>
			<path class="st0" d="M45.5,16.8H34.1v3.1h1.7v8.7h3.4v-8.8h4.3v8.7h3.4V18.2C46.8,17.3,46.4,16.8,45.5,16.8z"/>
			<path class="st0" d="M54.7,16.6c-3.6,0-6.2,2.6-6.2,6.1s2.6,6.1,6.2,6.1c3.6,0,6.2-2.6,6.2-6.1S58.3,16.6,54.7,16.6z M54.7,25.6
				c-1.6,0-2.8-1.2-2.8-2.8s1.2-2.8,2.8-2.8c1.6,0,2.8,1.2,2.8,2.8S56.3,25.6,54.7,25.6z"/>
			<path class="st0" d="M75.8,25.6h-3.2v-8.7h-3.4v8.7h-3.2v-8.7h-3.4v11.9h16.7V16.8h-3.4V25.6z"/>
			<path class="st0" d="M92.4,19.9v-3.1H80.8v3.1h4.1v8.8h3.4v-8.8H92.4z"/>
			<path class="st0" d="M101.3,28.7h3.7l-4.7-11.9h-4.2l-4.7,11.9H95l0.8-2.2h4.8L101.3,28.7z M96.7,23.8l1.3-3.9h0.3l1.3,3.9H96.7z
				"/>
		</g>
	</g>
</g>
</svg>
