<?xml version="1.0" encoding="utf-8"?>
<!-- Generator: Adobe Illustrator 27.0.0, SVG Export Plug-In . SVG Version: 6.00 Build 0)  -->
<svg version="1.1" id="Шар_1" xmlns="http://www.w3.org/2000/svg" xmlns:xlink="http://www.w3.org/1999/xlink" x="0px" y="0px"
	 viewBox="0 0 93 25" style="enable-background:new 0 0 93 25;" xml:space="preserve">
<style type="text/css">
	.st0{fill:none;}
	.st1{fill:#FFC627;}
</style>
<g>
	<g transform="translate(-134.000000, -20.000000)">
		<g>
			<g id="site-logo" transform="translate(134.000000, 20.000000)">
				<rect id="logo-background" x="0.1" class="st0" width="92.9" height="25"/>
				<path id="logo-shape" class="st1" d="M16.3,14.3l-8.2-1.9C6,11.9,4.5,10,4.5,7.8c0.1-2.2,1.6-4,3.8-4.4s4.2,0.8,5,2.9
					c0.8,2,0,4.3-1.8,5.5c0,0-0.1,0.1,0,0.1c0,0,0,0.1,0.1,0.1l3.6,0.8c0.1,0,0.2,0,0.2-0.1c1.8-2.3,2.1-5.5,0.9-8.1S12.5,0.2,9.5,0
					H9.2C5.8,0,2.7,1.8,1.1,4.8s-1.4,6.7,0.6,9.5l7.3,10.5c0,0,0.1,0.1,0.1,0.1s0.1,0,0.1-0.1l7.2-10.2c0,0,0-0.1,0-0.2
					C16.4,14.3,16.3,14.3,16.3,14.3z"/>
				<path id="logo-shape_00000024696787838202774390000016630507939243562371_" d="M23.3,4.9c0.1,0,0.1,0,0.2,0.1l2.4,4.2H26L28.1,5
					c0-0.1,0.1-0.2,0.2-0.1h1.5c0.1,0,0.1,0,0.1,0.1c0,0,0,0.1,0,0.2l-4.3,7.6c0,0.1-0.1,0.1-0.2,0.1H24c-0.2,0-0.2-0.1-0.1-0.2
					l1.1-2l-3.4-5.6c-0.1-0.1,0-0.2,0.1-0.2H23.3L23.3,4.9z"/>
				<path id="logo-shape_00000018924640656390787250000007608097159198930611_" d="M32.5,4.9c0.1,0,0.1,0,0.2,0.1
					c0,0,0.1,0.1,0.1,0.2v3.1L36,5c0.1-0.1,0.2-0.1,0.4-0.1h1.8c0.1,0,0.2,0.1,0.1,0.2l-3.5,3.3l3.7,4.3c0,0,0.1,0.1,0,0.1
					c0,0.1-0.1,0.1-0.1,0.1h-1.7c-0.1,0-0.3,0-0.4-0.1l-2.8-3.3l-0.8,0.7v2.5c0,0.1,0,0.1-0.1,0.2c0,0-0.1,0.1-0.2,0.1h-1.3
					c-0.1,0-0.1,0-0.2-0.1c0,0-0.1-0.1-0.1-0.2V5.1C31,5,31,5,31,4.9c0,0,0.1-0.1,0.2-0.1L32.5,4.9L32.5,4.9z"/>
				<path id="logo-shape_00000085236596127220336360000009716431017557147791_" d="M43.2,4.9c0.8,0,1.6,0.2,2.2,0.8s0.9,1.3,0.9,2.1
					c0,1.7-1.3,2.9-3.1,2.9h-2.1v1.9c0,0.1,0,0.1-0.1,0.2s-0.1,0.1-0.2,0.1h-1.3c-0.1,0-0.1,0-0.2-0.1s-0.1-0.1-0.1-0.2V5.1
					c0-0.1,0-0.1,0.1-0.2c0,0,0.1-0.1,0.2-0.1L43.2,4.9L43.2,4.9z M43.2,9.1c0.4,0,0.7-0.1,1-0.3c0.3-0.3,0.4-0.6,0.4-1
					c0-0.4-0.1-0.7-0.4-1c-0.3-0.3-0.6-0.4-1-0.3h-2.1v2.6H43.2z"/>
				<path id="logo-shape_00000023260145754670805820000004047849646341245081_" d="M54.3,4.9c0.1,0,0.1,0,0.2,0.1
					c0,0,0.1,0.1,0.1,0.2v7.6c0,0.1,0,0.1-0.1,0.2c0,0-0.1,0.1-0.2,0.1H53c-0.1,0-0.1,0-0.2-0.1c0,0-0.1-0.1-0.1-0.2V6.5h-3.5v6.2
					c0,0.1,0,0.1-0.1,0.2c0,0-0.1,0.1-0.2,0.1h-1.3c-0.1,0-0.1,0-0.2-0.1c0,0-0.1-0.1-0.1-0.2V5.1c0-0.1,0-0.1,0.1-0.2
					c0,0,0.1-0.1,0.2-0.1L54.3,4.9L54.3,4.9z"/>
				<path id="logo-shape_00000028316489273700178310000016113439562628304297_" d="M60.1,4.8c2.2,0.1,4,1.9,4,4.2
					c0,2.3-1.9,4.1-4.1,4c-2.2,0-4.1-1.8-4.1-4.1c0-1.1,0.4-2.2,1.2-2.9C58,5.2,59,4.8,60.1,4.8 M57.7,8.9c0,1.4,1.1,2.5,2.5,2.4
					s2.4-1.1,2.4-2.5s-1.1-2.5-2.5-2.5c-0.7,0-1.3,0.2-1.8,0.7C57.9,7.6,57.6,8.2,57.7,8.9"/>
				<path id="logo-shape_00000121969220782717720510000018293107422228121729_" d="M70,11.3V5.1C69.9,5,70,5,70,4.9
					c0,0,0.1-0.1,0.2-0.1h1.3c0.1,0,0.1,0,0.2,0.1c0,0,0.1,0.1,0.1,0.2v6.2h2.5V5.1c0-0.1,0-0.1,0.1-0.2c0,0,0.1-0.1,0.2-0.1h1.3
					c0.1,0,0.1,0,0.2,0.1c0,0,0.1,0.1,0.1,0.2v7.6c0,0.1,0,0.1-0.1,0.2c0,0-0.1,0.1-0.2,0.1H66c-0.1,0-0.1,0-0.1-0.1
					c0,0-0.1-0.1-0.1-0.1V5.1c0-0.1,0-0.1,0.1-0.2c0,0,0.1-0.1,0.2-0.1h1.3c0.1,0,0.1,0,0.2,0.1c0,0,0.1,0.1,0.1,0.2v6.2H70z"/>
				<path id="logo-shape_00000085240546443402449500000005165941066991367816_" d="M83.8,4.9c0.1,0,0.1,0,0.2,0.1
					c0,0,0.1,0.1,0.1,0.2v1.2c0,0.1,0,0.1-0.1,0.2s-0.1,0.1-0.2,0.1h-2.5v6.1c0,0.1,0,0.1-0.1,0.2c0,0-0.1,0.1-0.2,0.1h-1.3
					c-0.1,0-0.1,0-0.2-0.1c0,0-0.1-0.1-0.1-0.2V6.5h-2.5c-0.1,0-0.1,0-0.2-0.1c0,0-0.1-0.1-0.1-0.2V5.1c0-0.1,0-0.1,0.1-0.2
					c0,0,0.1-0.1,0.2-0.1H83.8L83.8,4.9z"/>
				<path id="logo-shape_00000067234441626484579890000004704038092000365994_" d="M90.1,11.3h-4l-0.6,1.4c0,0.1-0.1,0.2-0.2,0.2
					h-1.4c-0.1,0-0.2-0.1-0.1-0.2L87.1,5c0-0.1,0.1-0.1,0.2-0.1H89c0.1,0,0.2,0,0.2,0.1l3.3,7.6c0,0.1,0,0.1,0,0.2s-0.1,0.1-0.1,0.1
					h-1.4c-0.1,0-0.3-0.1-0.3-0.2L90.1,11.3z M86.7,9.8h2.8l-1.3-3.3H88L86.7,9.8z"/>
				<polygon id="logo-shape_00000150802463232114206630000013205402375863100300_" points="22.7,19.7 22.7,16.3 24.9,16.3 
					24.9,16.7 23.1,16.7 23.1,19.7 22.7,19.7 				"/>
				<path id="logo-shape_00000049221297456083344480000016614869709903190705_" d="M28.8,18c0,1-0.5,1.8-1.6,1.8
					c-1.1,0-1.6-0.8-1.6-1.8c0-1.1,0.6-1.8,1.6-1.8C28.2,16.2,28.8,16.9,28.8,18z M26,18c0,0.9,0.5,1.4,1.2,1.4
					c0.7,0,1.2-0.6,1.2-1.4c0-0.8-0.5-1.4-1.2-1.4C26.4,16.6,26,17.3,26,18L26,18z"/>
				<path id="logo-shape_00000178903327560912604580000017135863483185537930_" d="M32.3,19.7h-0.4v-3h-1.3l-0.1,1.9
					c0,0.7-0.3,1.2-0.8,1.2c-0.1,0-0.2,0-0.3-0.1v-0.4c0.1,0,0.2,0.1,0.2,0c0.2,0,0.4-0.1,0.4-1l0.1-2.1h2.1L32.3,19.7L32.3,19.7z"
					/>
				<path id="logo-shape_00000070092902161589578200000009904949991246231485_" d="M36.6,18c0,1-0.5,1.8-1.6,1.8
					c-1.1,0-1.6-0.8-1.6-1.8c0-1.1,0.6-1.8,1.6-1.8C36.1,16.2,36.6,16.9,36.6,18z M33.8,18c0,0.9,0.5,1.4,1.2,1.4
					c0.7,0,1.2-0.6,1.2-1.4c0-0.8-0.5-1.4-1.2-1.4C34.2,16.6,33.8,17.3,33.8,18L33.8,18z"/>
				<path id="logo-shape_00000091694240902276769730000006655851048765194391_" d="M39.2,16.3c0.6,0,1.1,0.2,1.1,0.9
					c0,0.3-0.2,0.6-0.5,0.7c0.4,0.1,0.7,0.5,0.7,0.9c0,0.8-0.6,1-1.3,1h-1.4v-3.4H39.2z M38.1,17.8h0.8c0.4,0,0.8,0,0.8-0.5
					s-0.4-0.5-0.8-0.5h-0.9V17.8L38.1,17.8z M38.1,19.3H39c0.4,0,0.9,0,0.9-0.6c0-0.6-0.5-0.6-1-0.6h-0.8L38.1,19.3L38.1,19.3z"/>
				<polygon id="logo-shape_00000167367860132349307700000011410357326329277594_" points="44.1,19.7 43.7,19.7 43.7,18.1 
					41.9,18.1 41.9,19.7 41.5,19.7 41.5,16.3 41.9,16.3 41.9,17.7 43.7,17.7 43.7,16.3 44.1,16.3 44.1,19.7 				"/>
				<path id="logo-shape_00000183211516459293825320000000025775055144128443_" d="M48.2,19.7h-0.5l-0.4-1h-1.4l-0.4,1h-0.5l1.3-3.4
					h0.5L48.2,19.7z M46.7,16.7l-0.6,1.6h1.2L46.7,16.7z"/>
				<polygon id="logo-shape_00000140737301767451076750000014810826771909019790_" points="53.8,19.7 53.3,19.7 53.3,16.7 
					51.5,16.7 51.5,19.7 51.1,19.7 51.1,16.3 53.8,16.3 53.8,19.7 				"/>
				<path id="logo-shape_00000148662321890599042690000001431724548991153563_" d="M58.1,18c0,1-0.5,1.8-1.6,1.8
					c-1.1,0-1.6-0.8-1.6-1.8c0-1.1,0.6-1.8,1.6-1.8C57.5,16.2,58.1,16.9,58.1,18z M55.3,18c0,0.9,0.5,1.4,1.2,1.4s1.2-0.6,1.2-1.4
					c0-0.8-0.5-1.4-1.2-1.4C55.7,16.6,55.3,17.3,55.3,18L55.3,18z"/>
				<polygon id="logo-shape_00000107560373065660504540000000621615383461347502_" points="59.1,16.3 59.6,16.3 59.6,19.3 
					61.1,19.3 61.1,16.3 61.5,16.3 61.5,19.3 63,19.3 63,16.3 63.5,16.3 63.5,19.7 59.1,19.7 59.1,16.3 				"/>
				<polygon id="logo-shape_00000132087454461206779660000011873977090452348597_" points="67.2,16.7 66.1,16.7 66.1,19.7 
					65.6,19.7 65.6,16.7 64.5,16.7 64.5,16.3 67.2,16.3 67.2,16.7 				"/>
				<path id="logo-shape_00000157268826306399856300000003365426981455987586_" d="M70.5,19.7H70l-0.4-1h-1.4l-0.4,1h-0.5l1.3-3.4
					h0.5L70.5,19.7z M68.9,16.7l-0.6,1.6h1.2L68.9,16.7z"/>
				<polygon id="logo-shape_00000003786240081432651500000015818575176753281456_" points="74.7,17.7 76.2,19.7 75.6,19.7 
					74.4,17.9 73.8,18.5 73.8,19.7 73.4,19.7 73.4,16.3 73.8,16.3 73.8,18 75.5,16.3 76.1,16.3 				"/>
				<path id="logo-shape_00000051347531532070518560000015545275675531412122_" d="M78.5,16.3c0.7,0,1.1,0.3,1.1,1
					c0,0.7-0.5,1-1.2,1h-0.9v1.4h-0.4v-3.4H78.5L78.5,16.3z M77.6,17.9h0.9c0.4,0,0.8-0.1,0.8-0.6c0-0.5-0.4-0.6-0.8-0.6h-0.8
					L77.6,17.9L77.6,17.9z"/>
				<path id="logo-shape_00000166676127776516654900000017730607944366150799_" d="M83.2,19.7h-0.5l-0.4-1h-1.4l-0.4,1h-0.5l1.3-3.4
					h0.5L83.2,19.7z M81.6,16.7L81,18.3h1.2L81.6,16.7z"/>
				<path id="logo-shape_00000111164098188140677170000017060491493140694936_" d="M84.1,16h-0.4v-0.5h0.4V16z M84.6,19.7h-0.4v-3.4
					h0.4V19.7L84.6,19.7z M85,16h-0.4v-0.5H85V16z"/>
				<polygon id="logo-shape_00000139278812888975288040000005537751633335511486_" points="88.5,19.7 88.1,19.7 88.1,18.1 
					86.3,18.1 86.3,19.7 85.9,19.7 85.9,16.3 86.3,16.3 86.3,17.7 88.1,17.7 88.1,16.3 88.5,16.3 88.5,19.7 				"/>
				<polygon id="logo-shape_00000101782937946671098860000008035172852097954959_" points="89.8,16.3 90.2,16.3 90.2,19.2 
					90.2,19.2 91.9,16.3 92.4,16.3 92.4,19.7 92,19.7 92,16.8 92,16.8 90.3,19.7 89.8,19.7 				"/>
			</g>
		</g>
	</g>
</g>
</svg>
