<svg width="65" height="50" fill="none" xmlns="http://www.w3.org/2000/svg"><g clip-path="url(#a)"><path d="M26.4 28.3V3.1H7.2L0 19.8V38h8c1.5-2.9 4.5-4.8 7.9-4.8 3.4 0 6.4 2 7.9 4.8h19.9c1.5-2.9 4.5-4.8 7.9-4.8 3.4 0 6.4 2 7.9 4.8h5.1v-9.6H26.4v-.1Z" fill="#FFC021"/><path d="M61.7 0H30.1v28.3h31.6V0Z" fill="#FF8A41"/><path d="M16.3 20.5c1.2 0 2.3-1 2.3-2.3v-9c0-1.2-1-2.3-2.3-2.3h-3.2c-1.2 0-2.6.9-3.1 2.1l-3.7 9.3c-.5 1.2.2 2.1 1.4 2.1h8.6v.1Z" fill="#20CFC1"/><path d="M16.3 21.1H7.7c-.8 0-1.5-.3-1.9-.9-.4-.6-.4-1.3-.1-2.1l3.7-9.3c.6-1.4 2.2-2.5 3.7-2.5h3.2c1.6 0 2.9 1.3 2.9 2.9v9c0 1.7-1.3 2.9-2.9 2.9ZM13.1 7.6c-1 0-2.1.8-2.5 1.7l-3.7 9.3c-.1.4-.1.7 0 .9.2.2.4.3.8.3h8.6c.9 0 1.6-.7 1.6-1.6v-9c0-.9-.7-1.6-1.6-1.6h-3.2Z" fill="#F27729"/><path d="M56.917 47.357a7.4 7.4 0 1 0-10.465-10.465 7.4 7.4 0 0 0 10.465 10.465Z" fill="#855641"/><path d="M51.7 50c-4.3 0-7.9-3.5-7.9-7.9s3.5-7.9 7.9-7.9 7.9 3.5 7.9 7.9-3.5 7.9-7.9 7.9Zm0-14.8c-3.8 0-7 3.1-7 7s3.1 7 7 7 7-3.1 7-7-3.1-7-7-7Z" fill="#714836"/><path d="M51.7 45.9c-2.1 0-3.8-1.7-3.8-3.8 0-2.1 1.7-3.8 3.8-3.8 2.1 0 3.8 1.7 3.8 3.8 0 2.1-1.7 3.8-3.8 3.8Z" fill="#FFC021"/><path d="M51.7 46.3c-2.3 0-4.2-1.9-4.2-4.2 0-2.3 1.9-4.2 4.2-4.2 2.3 0 4.2 1.9 4.2 4.2 0 2.4-1.9 4.2-4.2 4.2Zm0-7.5c-1.8 0-3.3 1.5-3.3 3.3 0 1.8 1.5 3.3 3.3 3.3 1.8 0 3.3-1.5 3.3-3.3 0-1.8-1.4-3.3-3.3-3.3Z" fill="#F2A416"/><path d="M23.4 42.1c0 4.1-3.3 7.4-7.4 7.4-4.1 0-7.4-3.3-7.4-7.4 0-4.1 3.3-7.4 7.4-7.4 4 0 7.4 3.3 7.4 7.4Z" fill="#855641"/><path d="M15.9 50C11.6 50 8 46.5 8 42.1s3.5-7.9 7.9-7.9c4.3 0 7.9 3.5 7.9 7.9S20.3 50 15.9 50Zm0-14.8c-3.8 0-7 3.1-7 7s3.1 7 7 7c3.8 0 7-3.1 7-7s-3.1-7-7-7Z" fill="#714836"/><path d="M15.9 45.9c-2.1 0-3.8-1.7-3.8-3.8 0-2.1 1.7-3.8 3.8-3.8 2.1 0 3.8 1.7 3.8 3.8 0 2.1-1.7 3.8-3.8 3.8Z" fill="#FFC021"/><path d="M15.9 46.3c-2.3 0-4.2-1.9-4.2-4.2 0-2.3 1.9-4.2 4.2-4.2 2.3 0 4.2 1.9 4.2 4.2.1 2.4-1.8 4.2-4.2 4.2Zm0-7.5c-1.8 0-3.3 1.5-3.3 3.3 0 1.8 1.5 3.3 3.3 3.3 1.8 0 3.3-1.5 3.3-3.3.1-1.8-1.4-3.3-3.3-3.3Zm48-9.7H1.8v3.2h62.1v-3.2Z" fill="#F2A416"/><path d="M30.1 0h-1.9v28.3h1.9V0Zm3.7 0h-1.9v28.3h1.9V0Zm3.8 0h-1.9v28.3h1.9V0Zm3.7 0h-1.9v28.3h1.9V0ZM45 0h-1.9v28.3H45V0Zm3.7 0h-1.9v28.3h1.9V0Zm3.7 0h-1.9v28.3h1.9V0Zm3.8 0h-1.9v28.3h1.9V0Zm3.7 0H58v28.3h1.9V0Zm3.7 0h-1.9v28.3h1.9V0Z" fill="#F27729"/></g><defs><clipPath id="a"><path fill="#fff" d="M0 0h64.8v50H0z"/></clipPath></defs></svg>