<svg width="250" height="50" fill="none" xmlns="http://www.w3.org/2000/svg"><path d="M82.575 11.05H63.85l-.275 7.175a67.795 67.795 0 0 1-.325 4.35c-.15 1.325-.375 2.475-.675 3.45-.3.975-.7 1.725-1.2 2.275-.5.55-1.125.8-1.9.775h-.7v9.9h6.05V34.3H79.7v4.675h6v-9.9h-3.15V11.05h.025ZM67.75 28.275c.35-.7.625-1.525.825-2.5.2-.975.375-2.05.5-3.225.125-1.175.2-2.425.25-3.775l.1-2.525H76.1v12.8h-8.8c.15-.225.3-.475.45-.775Zm27.625-3.325H105.7v-4.9H95.375v-3.925H107.1V11.05H88.875v23.225h18.65V29.2h-12.15v-4.25Zm40.925 4.125h-6.025V11.05h-6.45v18.025h-6.075V11.05h-6.475v23.225h31.475V11.05h-6.45v18.025Zm17.95-4.125h10.325v-4.9H154.25v-3.925h11.7V11.05h-18.2v23.225h18.65V29.2h-12.15v-4.25Zm34.825-1.85a7.618 7.618 0 0 0-2.025-.975c.35-.175.7-.375 1-.625 1.45-1.075 2.15-2.55 2.15-4.425 0-1.925-.775-3.4-2.3-4.475-1.55-1.05-3.7-1.575-6.475-1.575H170.15V34.25h11.925c2.975 0 5.275-.6 6.85-1.8 1.575-1.2 2.375-2.8 2.375-4.85-.025-1.95-.75-3.475-2.225-4.5ZM176.6 15.75h4.175c.925 0 1.625.2 2.1.575.475.375.7.95.7 1.7s-.225 1.325-.7 1.7-1.15.575-2.1.575H176.6v-4.55Zm7.325 13.2c-.475.4-1.2.625-2.15.625H176.6v-4.8h5.175c.95 0 1.675.2 2.15.575.475.375.725.975.725 1.775 0 .8-.25 1.425-.725 1.825Zm35.925.125h-6V11.05h-6.475v18.025H201.3V11.05h-6.475v23.225h31.5V11.05h-6.475v18.025Zm17.951.125v-4.25h10.325v-4.9h-10.325v-3.925h11.7V11.05h-18.2v23.225h18.65V29.2h-12.15Z" fill="#1E4284"/><path d="m27.175 25.725 2.125 2 .025.025 1.05 1.025 2.15 2.1 1.55 1.525c.95.975 2.1.95 3.25-.25L46 23.675c.975-.95 1-2.5.05-3.475l-8.45-8.5-1.175-1.25a.663.663 0 0 0-.15.125c-.1.075-.2.15-.325.25-.075.05-.125.1-.175.15-.1.075-.2.2-.325.35-.125.15-.25.3-.425.475-1.1 1.325-2.15 2.775-3.175 4.325-2.45 3.825-3.975 7.2-4.675 9.6Zm-8.5-8.225 1.6 1.625.875.9 2.15 2.05c.2-.55.45-1.1.7-1.65a38.366 38.366 0 0 1 2.475-4.525c.95-1.5 2-2.875 3.075-4.125a23.03 23.03 0 0 1 2.325-2.35c.5-.45 1.025-.875 1.525-1.25.15-.1.325-.225.525-.35l-.6-.65-.775-.8-1.225-1.25a2.06 2.06 0 0 0-1.775-.6l-5.35.825c-.425.05-.825.25-1.125.55l-.8.775-.875.85-1.775 1.75c-.05.05-.1.1-.125.15-.2.25-.35.525-.425.825 0 .05-.025.075-.025.125L18.1 15.7c-.1.65.1 1.325.575 1.8Z" fill="#F1E12F"/><path d="M23.4 8.475a1.08 1.08 0 0 1-.024 1.55 1.08 1.08 0 0 1-1.55-.025 1.08 1.08 0 0 1 .024-1.55c.425-.425 1.125-.4 1.55.025Z" fill="#fff"/><path d="M16.75 2.25c1.925-.075 4.325 4.175 5.575 7.25.075.15.275.2.4.1l.35-.3c.175-.175.25-.425.15-.65-1-2.375-3.575-7.675-6.5-7.55-1.1.05-1.875.7-2.1 1.75-.475 2.15 1.4 6.025 4.4 7.55l.525-1.025c-2.475-1.25-4.175-4.55-3.8-6.275.1-.55.425-.825 1-.85Zm6.5 26.575c0-.175 0-.35.025-.525.075-.875.225-1.725.425-2.55.225-.875.475-1.725.775-2.55.275-.75.575-1.475.9-2.175.7-1.5 1.5-2.95 2.375-4.35.9-1.375 1.875-2.725 2.95-3.95.675-.775 1.4-1.525 2.175-2.225.45-.4.925-.8 1.425-1.15.2-.15.425-.3.65-.425a9.78 9.78 0 0 1 1.525-.8c.125-.05.275-.1.4-.15.275-.075.55-.15.825-.175.425-.05.875-.025 1.275.125.4.15.775.425 1.025.75.25.35.425.725.525 1.125.2.8.225 1.625.15 2.425 0-.8-.05-1.625-.3-2.375-.125-.375-.3-.75-.55-1.025-.25-.3-.575-.5-.95-.6-.725-.2-1.35.025-2.05.35-.525.225-.925.5-1.4.85H35.4c-.175.125-.375.3-.55.425-.35.275-.575.65-.9.975a54.585 54.585 0 0 0-3.325 4.525c-2.175 3.35-3.8 6.65-4.675 9.3-.55 1.675-.8 3.1-.7 4.15v.15c.025.525.1 1.05.275 1.45.1.275.25.5.4.65.15.15.3.225.475.25.175.05.425.025.725-.05l-.375-.575-.175-.275 1.6-.05 3.025-.125-2.15 4.1-.575-.925c-.025 0-.025.025-.05.025-.2.075-.425.125-.625.175-.1.025-.2.025-.3.05-.525.075-1.125.1-1.725-.075a3.278 3.278 0 0 1-1.55-1c-.4-.45-.625-.975-.775-1.45a12.63 12.63 0 0 1-.2-2.3Zm7.825 17.1H27.25a.95.95 0 1 1 0-1.9h3.825a.95.95 0 1 1 0 1.9Z" fill="#1E4284"/><path d="M42.4 46.3a1.5 1.5 0 0 1-1.425-1.05c-.25-.8.2-1.625 1-1.875 1.15-.35 1.55-1.125 1.7-1.55.15-.475.125-.875-.075-1.275-.3-.575-.925-.925-1.65-.925H21.575c-2.2 0-4.2-1.375-4.975-3.425L7.975 13.675c-.3-.775-1.075-1.325-1.9-1.325h-4.5c-.825 0-1.5-.675-1.5-1.5s.675-1.5 1.5-1.5h4.5c2.075 0 3.975 1.3 4.725 3.25l8.6 22.475c.35.9 1.225 1.5 2.175 1.5h20.35c1.825 0 3.525 1 4.325 2.575.575 1.125.65 2.375.25 3.6-.275.775-1.15 2.675-3.675 3.45a.822.822 0 0 1-.425.1Zm-20.6 2.6a3.932 3.932 0 0 1-3.925-3.925c0-2.15 1.775-3.925 3.925-3.925a3.932 3.932 0 0 1 3.925 3.925c0 2.15-1.75 3.925-3.925 3.925Zm0-5.95c-1.1 0-2.025.9-2.025 2.025S20.675 47 21.8 47s2.025-.9 2.025-2.025A2.033 2.033 0 0 0 21.8 42.95Z" fill="#1E4284"/><path d="M21.8 46.3a1.325 1.325 0 1 0 0-2.65 1.325 1.325 0 0 0 0 2.65Z" fill="#F1E12F"/><path d="M36.5 48.9a3.932 3.932 0 0 1-3.925-3.925c0-2.15 1.775-3.925 3.925-3.925a3.932 3.932 0 0 1 3.925 3.925c0 2.15-1.75 3.925-3.925 3.925Zm0-5.95c-1.1 0-2.025.9-2.025 2.025S35.375 47 36.5 47s2.025-.9 2.025-2.025-.9-2.025-2.025-2.025Z" fill="#1E4284"/><path d="M36.5 46.3a1.325 1.325 0 1 0 0-2.65 1.325 1.325 0 0 0 0 2.65Z" fill="#F1E12F"/><path d="M39.05 27.125c.026.325-.1.6-.324.85-.2.225-.425.375-.725.425-.15.025-.3 0-.475-.025-.25-.05-.5-.15-.725-.25-.25-.125-.5-.275-.75-.45-.3-.2-.55-.425-.8-.7-.15-.15-.3-.325-.45-.5-.25-.3-.475-.6-.675-.95-.175-.325-.3-.65-.3-1.025 0-.325.075-.625.25-.9.1-.15.25-.275.45-.325a.477.477 0 0 1 .325.05c-.15-.325-.275-.65-.45-.975-.125-.25-.325-.475-.525-.675-.125-.125-.25-.275-.375-.4s-.275-.25-.4-.375l-.125-.125c-.15-.125-.325-.25-.475-.4-.275-.25-.55-.5-.825-.775a.698.698 0 0 1-.2-.5c0-.225.1-.375.275-.475.125-.075.275-.125.425-.2.075-.025.15-.025.225-.025h.375c.425 0 .8.175 1.125.45.35.3.725.6 1.075.9.35.275.75.475 1.2.55.125.025.225.05.35.075.05.025.1 0 .125-.05.125-.125.25-.275.375-.4.25-.25.5-.5.775-.75s.575-.475.9-.625c.2-.075.4-.15.625-.125.2.025.375.1.525.25.125.125.225.225.325.375.05.05.125.1.2.125.15.075.275.15.425.225.2.125.35.325.425.55.05.175.175.275.3.35.025 0 .025.025.05.025.3.1.45.35.575.625.075.2.125.425.2.625.025.05.025.075.075.1.4.375.5.825.4 1.35-.05.2-.1.4-.175.575-.05.15-.15.275-.225.4-.175.25-.325.5-.5.75-.2.25-.425.475-.625.7l-.3.3c-.15.15-.325.3-.475.45-.125.125-.25.25-.375.35-.225.175-.45.325-.75.375-.1.175-.225.175-.35.2Zm1.15-7.4a.45.45 0 0 0-.174-.375 1.374 1.374 0 0 0-.225-.175c-.1-.075-.175-.15-.275-.2-.275-.125-.575-.1-.85.025-.475.2-.875.525-1.25.875-.225.2-.425.45-.625.675 0 0-.025.025-.05.025-.275.075-.525.125-.825.05a2.2 2.2 0 0 1-.875-.425c-.275-.225-.525-.45-.775-.675-.2-.2-.4-.35-.65-.475-.325-.175-.65-.3-1.025-.325a.99.99 0 0 0-.875.375c-.1.125-.1.25.025.35.275.275.575.525.875.75.2.15.425.3.625.45.4.325.7.7 1 1.1.2.25.35.525.5.825.125.2.25.425.325.65.1.225.15.475.225.725v.375c.025.2.1.4.2.575.125.25.3.45.475.65.25.275.525.55.825.75.3.2.625.325 1 .325.025 0 .05 0 .075.025.225.1.45.175.7.225.325.05.65.025.925-.15.45-.25.825-.55 1.175-.925.15-.175.325-.325.475-.475.075-.075.175-.15.25-.25.125-.15.225-.3.35-.45.2-.25.375-.5.525-.8.125-.25.225-.5.225-.8v-.05a.19.19 0 0 0 .05-.1V22.6c-.05-.325-.2-.55-.5-.725-.025 0-.025-.05-.025-.075 0-.2-.025-.4-.1-.6-.05-.15-.15-.3-.275-.425-.15-.125-.325-.1-.45.075-.025.05-.075.1-.1.15.05-.2 0-.375-.05-.55a1.77 1.77 0 0 0-.4-.7c-.075-.075-.15-.1-.25-.075-.025 0-.125.025-.2.05Z" fill="#1E4284"/><path d="M36.226 20.9c-.125.05-.225.1-.35.15-.025 0-.025.05-.05.075.45-.125.9-.2 1.25-.55.225-.225.425-.45.675-.65.325-.275.65-.55 1.05-.675.425-.15.675-.075 1 .25.1.1.15.2.2.35.025.075.075.1.15.075.025 0 .025-.025.05-.025.2-.1.325-.075.475.125.125.175.2.35.3.525.05.1.075.225.05.35-.025.1 0 .175.05.275.1-.1.2-.175.3-.275.025-.025.05-.025.1-.025.175.05.25.2.3.375.05.15.1.325.075.475 0 .125.05.225.15.3.1.1.175.175.25.275.125.15.125.325.1.5-.125-.1-.25-.175-.4-.275a.636.636 0 0 1-.275-.3 1.417 1.417 0 0 0-.2-.325c-.025-.05-.1-.075-.15-.125-.05-.025-.1-.05-.175-.05a.495.495 0 0 1-.35-.35c-.05-.125-.1-.275-.175-.4-.1-.175-.3-.3-.45-.425-.225-.15-.425-.325-.65-.475-.05-.05-.1-.1-.15-.175-.025.15.025.3.1.425.125.175.275.275.425.375.125.075.225.15.35.225.125.075.2.2.225.35.025.1.05.225.125.3a.59.59 0 0 0 .225.2c.275.125.45.35.65.55.15.15.3.275.45.425.1.1.225.175.3.325.025.05.025.1.025.125-.05.325-.225.6-.425.875-.35.4-.675.825-1.025 1.225-.325.375-.65.7-1.075.975a1.5 1.5 0 0 1-1.125.225c-.475-.075-.925-.225-1.325-.5-.075-.05-.125-.1-.175-.15-.025 0-.05.025-.075.025.25.2.475.375.75.575-.225-.1-.45-.175-.65-.325-.65-.475-1.1-1.1-1.475-1.8V24.3c.075.125.175.225.25.35.1.125.175.225.275.35.1.125.2.225.3.325-.125-.175-.275-.35-.375-.55-.2-.35-.375-.725-.5-1.1-.25-.7-.55-1.4-1-2a7.812 7.812 0 0 0-1.075-1.15c-.3-.25-.625-.475-.925-.7-.15-.1-.275-.225-.375-.35-.125-.125-.1-.25.075-.325.2-.1.4-.125.6-.1.275.05.55.175.775.325.425.275.775.6 1.125.95.175.15.35.325.525.45.225.175.475.2.75.15.05-.025.1-.025.15-.025Z" fill="#1E4284"/></svg>