<svg xmlns="http://www.w3.org/2000/svg" viewBox="0 0 99 25" style="enable-background:new 0 0 99 25" xml:space="preserve"><path d="M72.6 10.6c0-2.4 4.6-1.7 5.9-1.1l.5-4.1C74.3 4 67.2 5 67.2 11.1c-.1 6 8.7 5.2 8.7 8 0 3-6.9 1.5-8.4.6l-.8 4.1c5.1 2.3 14.9 1.8 14.6-5.1 0-6.6-8.7-5.4-8.7-8.1zm-11.8 2.1c0-5.3-7.2-5.4-7.1 0h7.1zm-7.1 4.1c.4 4.7 7.7 3.9 10.9 2.9l.8 4.1c-7.4 2.8-17.3 1-17.3-8.7 0-12.9 18.4-14.3 18.4-.7 0 1-.1 1.9-.2 2.4H53.7zm25.8-7.3h2.8v8.1c0 4.3 1.1 7.4 5.8 7.4 1.7 0 3.1-.4 3.9-.7v-4.5c-2.8.5-4.2.7-4.2-3V0h-5.5v5.4h-2.4l-.4 4.1zm9.2 0H92l1.1-2.1-1.1-2h-3.3v4.1zM16.9 24.6l4.8-19.2L22.9 25h5.4L26.7 0h-8.4l-4.1 16.8L10 0H1.6L0 25h5.4L6.7 5.4l4.8 19.2h5.4z" style="fill-rule:evenodd;clip-rule:evenodd;fill:#0055a3"/><path d="M99 7.4 94.9 0h-4.1l4.1 7.4-4.1 7.5h4.1L99 7.4zm-57.5 5.3c0-5.3-7.2-5.4-7.1 0h7.1zm3.7 7c-3.2 1-10.5 1.8-10.9-2.9h12.6c.1-.4.2-1.3.2-2.4 0-13.6-18.4-12.2-18.4.7 0 9.7 9.9 11.5 17.3 8.7l-.8-4.1z" style="fill-rule:evenodd;clip-rule:evenodd;fill:#e30036"/></svg>