<svg width="50" height="50" fill="none" xmlns="http://www.w3.org/2000/svg"><path d="M43.8 31.9c-.2.8-.5 1.5-.7 2.3-.4 1-.9 2-1.4 2.9-.9 1.5-2 2.9-3.2 4.1l.2.2c.2.2 2.1 2.3 2.1 2.2 1.7-1.6 3.1-3.6 4.3-5.7.6-1.1 1.1-2.3 1.5-3.5.2-.5.3-1 .5-1.5 0-.2 0-.1-.2-.2-1.1-.3-2.1-.5-3.1-.8Z" fill="#F2A416"/><path d="M44.4 25.4c1.1-.1 2.2-.2 3.3-.2-.2-3-1-5.9-2.3-8.7-1 .5-2 1-2.9 1.5 1.1 2.3 1.8 4.8 1.9 7.4ZM39.6 8.9c-.7.9-1.4 1.7-2.1 2.6.8.7 1.5 1.4 2.2 2.2.3.3.6.7.9 1.1l.2-.2 2.4-1.8c-1.1-1.5-2.3-2.7-3.6-3.9Z" fill="#FFC021"/><path d="m23.9 10.5 8.4-5.3L23.9 0v3.5c-2.1.1-4.1.5-6 1.1C13 6.4 8.8 9.6 6 14.1c-1.6 2.6-2.9 5.7-3.3 8.8-.2 1.6-.4 3.2-.3 4.9.1 1.3.2 2.5.4 3.7l3-.6c.2 0 .2 0 .2-.2-.1-.5-.2-1.1-.3-1.6-.1-1.2-.1-2.4-.1-3.7 0-1.2.3-2.5.6-3.7.3-1.2.7-2.4 1.3-3.6 1.1-2.3 2.5-4.3 4.3-6 3.3-3.1 7.6-5 12-5.3v3.7h.1ZM13.6 42.7c2 1.5 4.2 2.6 6.6 3.2 1.2.3 2.4.6 3.6.6 1.2.1 2.5.1 3.7-.1.3-.1.6-.1.9-.2-1.1.2-2.3.3-3.5.3-5.1-.1-10-2.2-13.5-5.9-.9-.9-1.7-1.9-2.4-3l-.6-.9c1.4 2.4 3.1 4.4 5.2 6Zm-4.3.6.2.2-.3-.3s.1 0 .1.1Zm1.9 1.6c-.2-.2-.5-.4-.7-.6.2.3.4.5.7.6Zm-4.3-4.5c.2.3.4.5.6.8-.3-.3-.5-.7-.7-1 0 0 0 .1.1.2Zm5.8 5.7c-.3-.2-.5-.4-.8-.5.3.1.6.3.8.5Zm-4.9-4.5c-.1-.1-.2-.3-.4-.4.2.1.3.2.4.4Zm26 6.6c-.1 0-.2.1-.2.1.1 0 .2 0 .2-.1Zm-5.4-1.9c.2 0 .3-.1.5-.1-.1 0-.3.1-.5.1ZM9.2 43.2c-.3-.3-.6-.6-.9-1 .3.3.6.6.9 1Zm2.7 2.4c-.3-.2-.5-.4-.8-.6.3.2.6.4.8.6Zm3.7 2.1c-.5-.2-.9-.5-1.4-.7.8.5 1.6.9 2.5 1.2 2.8 1.2 6 1.9 9 1.7 1.6-.1 3.2-.2 4.7-.6.3-.1.6-.2 1-.3-.3.1-.5.1-.8.2-5.1 1.3-10.3.7-15-1.5Zm-5.1-3.3c-.3-.3-.7-.6-1-.9.3.3.6.6 1 .9Z" fill="#F27729"/><path d="m32.5 45.2-1.5.6c-.7.2-1.4.3-2 .5-.2 0-.3.1-.5.1-.3.1-.6.1-.9.2-1.2.2-2.4.1-3.7.1-1.2-.1-2.5-.3-3.6-.6-2.4-.6-4.6-1.7-6.6-3.2-2.1-1.6-3.9-3.6-5.2-5.9-.1 0-.1 0-.2.1-.9.5-1.8 1.1-2.7 1.6.4.3.7.9 1.1 1.4.2.3.5.7.7 1 .1.1.2.3.4.4.2.3.3.5.5.7.3.3.6.7.9 1l.3.3c.3.3.7.6 1 .9.2.2.4.4.7.6.3.2.5.4.8.6.3.2.5.4.8.5l.9.6c.2.1.4.2.5.3.5.3.9.5 1.4.7 4.7 2.2 9.9 2.8 15 1.6.3-.1.5-.1.8-.2.2-.1.4-.1.6-.2.1 0 .3-.1.4-.1.4-.1.9-.3 1.3-.5.1 0 .2-.1.2-.1-.4-1-.8-1.9-1.2-2.9-.1-.1-.1-.2-.2-.1Z" fill="#FF8A41"/></svg>