<svg width="50" height="50" fill="none" xmlns="http://www.w3.org/2000/svg"><g clip-path="url(#a)"><path d="M46.8 13.1H.4V3c0-1.6 2.4-3 4-3h35.1l7.3 13.1Z" fill="#F27729"/><path d="M16.1 0h27.8c1.6 0 2.9 1.3 2.9 3v11.4L16.1 0Z" fill="#F27729"/><path d="M.4 7.2c0 1.6 2.4 3 4 3h39.5c1.6 0 2.9 1.3 2.9 3V47c0 1.6-1.3 3-2.9 3H4.4c-1.6 0-4-1.3-4-3V7.2Z" fill="#FF8A41"/><path d="M1.5 9.7c0 1.6 1.3 3 2.9 3h37.1c1.6 0 2.9 1.3 2.9 3v29c0 1.6-1.3 3-2.9 3H4.4c-1.6 0-2.9-1.3-2.9-3v-35Z" fill="#FF8A41"/><path d="M1.6 11.1c-.3 0-.5-.2-.6-.4-.1-.3-.1-.7-.1-1 0-.3.3-.6.6-.6s.6.3.6.6c0 .2 0 .5.1.7.1.3-.1.7-.4.7h-.2Zm38.2 37.1H38c-.3 0-.6-.3-.6-.6s.3-.6.6-.6h1.7c.3 0 .6.3.6.6.1.3-.2.6-.5.6Zm-4.4 0h-1.7c-.3 0-.6-.3-.6-.6s.3-.6.6-.6h1.7c.3 0 .6.3.6.6s-.2.6-.6.6Zm-4.3 0h-1.7c-.3 0-.6-.3-.6-.6s.3-.6.6-.6h1.7c.3 0 .6.3.6.6s-.3.6-.6.6Zm-4.3 0H25c-.3 0-.6-.3-.6-.6s.3-.6.6-.6h1.7c.3 0 .6.3.6.6.1.3-.2.6-.5.6Zm-4.4 0h-1.7c-.3 0-.6-.3-.6-.6s.3-.6.6-.6h1.7c.3 0 .6.3.6.6s-.3.6-.6.6Zm-4.3 0h-1.7c-.3 0-.6-.3-.6-.6s.3-.6.6-.6h1.7c.3 0 .6.3.6.6s-.3.6-.6.6Zm-4.4 0H12c-.3 0-.6-.3-.6-.6s.3-.6.6-.6h1.7c.3 0 .6.3.6.6s-.3.6-.6.6Zm-4.3 0H7.6c-.3 0-.6-.3-.6-.6 0-.4.3-.6.6-.6h1.7c.3 0 .6.3.6.6.1.3-.2.6-.5.6Zm-4.4 0h-.6c-.5 0-.9-.1-1.3-.3-.3-.1-.5-.5-.3-.8.1-.3.5-.5.8-.3.2.1.5.2.8.2H5c.3 0 .6.3.6.6s-.2.6-.6.6Zm37.4-.2c-.3 0-.5-.2-.6-.4-.1-.3.1-.7.4-.8.4-.1.8-.4 1.1-.8.2-.3.6-.3.8-.1.3.2.3.6.1.8-.4.6-1 1-1.7 1.2 0 .1-.1.1-.1.1Zm2-3.4c-.3 0-.6-.3-.6-.6v-1.7c0-.3.3-.6.6-.6s.6.3.6.6V44c0 .3-.2.6-.6.6Zm0-4.3c-.3 0-.6-.3-.6-.6V38c0-.3.3-.6.6-.6s.6.3.6.6v1.7c0 .3-.2.6-.6.6Zm0-4.4c-.3 0-.6-.3-.6-.6v-1.7c0-.3.3-.6.6-.6s.6.3.6.6v1.7c0 .3-.2.6-.6.6Zm0-4.3c-.3 0-.6-.3-.6-.6v-1.7c0-.3.3-.6.6-.6s.6.3.6.6V31c0 .3-.2.6-.6.6Zm0-4.4c-.3 0-.6-.3-.6-.6v-1.7c0-.3.3-.6.6-.6s.6.3.6.6v1.7c0 .3-.2.6-.6.6Zm0-4.3c-.3 0-.6-.3-.6-.6v-1.7c0-.3.3-.6.6-.6s.6.3.6.6v1.7c0 .3-.2.6-.6.6Zm0-4.4c-.3 0-.6-.3-.6-.6v-1.7c0-.3.3-.6.6-.6s.6.3.6.6v1.7c0 .4-.2.6-.6.6Zm-.6-4.2c-.2 0-.4-.1-.5-.2-.3-.4-.7-.6-1.1-.8-.3-.1-.5-.4-.4-.8.1-.3.4-.5.8-.4.7.2 1.3.6 1.7 1.2.2.3.2.6-.1.8-.2.2-.3.2-.4.2Zm-4-1.1H38c-.3 0-.6-.3-.6-.6s.3-.6.6-.6h1.7c.3 0 .6.3.6.6.1.4-.2.6-.5.6Zm-4.4 0h-1.7c-.3 0-.6-.3-.6-.6s.3-.6.6-.6h1.7c.3 0 .6.3.6.6 0 .4-.2.6-.6.6Zm-4.3 0h-1.7c-.3 0-.6-.3-.6-.6s.3-.6.6-.6h1.7c.3 0 .6.3.6.6 0 .4-.3.6-.6.6Zm-4.4 0H25c-.3 0-.6-.3-.6-.6s.3-.6.6-.6h1.7c.3 0 .6.3.6.6 0 .4-.2.6-.6.6Zm-4.3 0h-1.7c-.3 0-.6-.3-.6-.6s.3-.6.6-.6h1.7c.3 0 .6.3.6.6 0 .4-.3.6-.6.6Zm-4.4 0h-1.7c-.3 0-.6-.3-.6-.6s.3-.6.6-.6H18c.3 0 .6.3.6.6 0 .4-.2.6-.6.6Zm-4.3 0H12c-.3 0-.6-.3-.6-.6s.3-.6.6-.6h1.7c.3 0 .6.3.6.6 0 .4-.3.6-.6.6Zm-4.3 0H7.6c-.3 0-.6-.2-.6-.6 0-.3.3-.6.6-.6h1.7c.3 0 .6.3.6.6.1.4-.2.6-.5.6Zm-4.4 0h-.6c-.5 0-.9-.1-1.3-.3-.3-.1-.5-.5-.3-.8.1-.3.5-.5.8-.3.2.2.5.2.8.2H5c.3 0 .6.3.6.6 0 .4-.3.6-.6.6ZM1.6 46.1c-.3 0-.5-.2-.6-.4-.1-.3-.1-.7-.1-1 0-.3.3-.6.6-.6s.6.3.6.6c0 .2 0 .5.1.7.1.3-.1.7-.4.7h-.2Z" fill="#855641"/><path d="M45.8 7.5H2.5c-.3 0-.6-.3-.6-.6s.3-.6.6-.6h43.3c.3 0 .6.3.6.6s-.3.6-.6.6Zm0-3.4H2.5c-.3 0-.6-.3-.6-.6s.3-.6.6-.6h43.3c.3 0 .6.3.6.6s-.3.6-.6.6Z" fill="#714836"/><g fill="#FFC021"><path d="M25.9 30.4c0 2 1.7 3.7 3.7 3.7h18.5c2 0 2-10 0-10H29.6c-2 0-3.7 1.7-3.7 3.7v2.6Z"/><path d="M25.9 30.4c0 2 1.7 3.7 3.7 3.7h18.5c2 0 2-10 0-10H29.6c-2 0-3.7 1.7-3.7 3.7v2.6Z"/></g><path d="M32.9 29.1c0 1.3-1.1 2.4-2.4 2.4-1.3 0-2.4-1.1-2.4-2.4 0-1.3 1.1-2.4 2.4-2.4 1.3 0 2.4 1.1 2.4 2.4Z" fill="#714836"/></g><defs><clipPath id="a"><path fill="#fff" d="M0 0h50v50H0z"/></clipPath></defs></svg>