<svg width="41" height="50" fill="none" xmlns="http://www.w3.org/2000/svg"><g clip-path="url(#a)"><path d="M8.5 22.8V50l11.9-7.4V22.8H8.5Z" fill="#706B96"/><path d="M32.4 22.8h-12v19.8l12 7.4V22.8Z" fill="#3D3A70"/><path d="m20.4 19.2-.1-.2.1.2Zm.1 0-.1-.2v.2h.1Zm0 .1v-.1h-.1l.1.1Zm0-.1.1-.2-.1.2Z" fill="#FF8A41"/><path d="m20.5 19.3.1-.2-.1.1v.1Zm-.1-.1h-.1l.1.1v-.1Zm0 0v.1h.1l-.1-.1Zm0 .1L2.8 21.1c0 .7-.1 1.5-.5 2.1-.5.7-.5 1.4-.3 2.1l18.4-6ZM3.5 13.7c-.3.7-.7 1.3-1.3 1.7-.7.4-1.1 1.1-1.1 1.7l19.3 2.1-16.9-5.5Z" fill="#FF8A41"/><path d="M20.4 19.3 1.1 17.2c0 .6.2 1.2.7 1.7.6.6.9 1.4 1 2.2l17.6-1.8ZM2 25.3c.2.5.7 1 1.4 1.2.8.3 1.4.9 1.8 1.6l15.3-8.8-18.5 6Z" fill="#F27729"/><path d="M20.4 19.3 5.1 28.1c.3.7.5 1.4.4 2.1-.2.8.1 1.5.6 2l14.3-12.8v-.1Z" fill="#FF8A41"/><path d="m20.4 19.2-.1-.2L9 3.3c-.5.4-.8 1-.9 1.8 0 .8-.4 1.6-.9 2.2l13.1 11.9h.1Zm0 0V19l-4-19c-.6.1-1.2.6-1.5 1.3-.3.7-1 1.3-1.7 1.6L20.3 19l.1.2Z" fill="#F27729"/><path d="M13.2 2.9c-.7.3-1.5.4-2.3.2-.7-.3-1.4-.1-1.9.2L20.3 19 13.2 2.9Z" fill="#FF8A41"/><path d="M6.1 32.2c.4.4 1 .6 1.7.6.8-.1 1.6.2 2.3.7l10.3-14.1L6.1 32.2Z" fill="#F27729"/><path d="M7.2 7.3c-.5.5-1.2.9-2 1-.8.1-1.4.5-1.7 1.1l16.8 9.7L7.2 7.3Z" fill="#FF8A41"/><path d="m20.4 19.3-.1-.1L3.5 9.4c-.3.5-.3 1.2 0 1.9.3.8.3 1.6 0 2.4l16.9 5.6Zm14.4 12.9c.5-.5.7-1.2.6-2-.1-.7 0-1.4.3-2.1l-15.1-8.7 14.2 12.8Z" fill="#F27729"/><path d="m20.5 19.3.1.1 15.1 8.7c.4-.8 1-1.4 1.8-1.7.7-.2 1.1-.7 1.3-1.2l-18.3-5.9Z" fill="#FF8A41"/><path d="m20.6 19.3 18.3 6c.3-.6.2-1.4-.3-2.1-.4-.6-.6-1.3-.5-2l-17.5-1.9Z" fill="#F27729"/><path d="M20.4 19.4 10.1 33.5c.6.5 1.1 1.1 1.2 1.8.2.8.7 1.3 1.3 1.6l7.8-17.4v-.1Z" fill="#FF8A41"/><path d="M28.3 36.9c.6-.2 1.1-.8 1.2-1.6.2-.7.6-1.3 1.2-1.8l-10.1-14 7.7 17.4Z" fill="#F27729"/><path d="m20.5 19.4-.1.2-3.6 16.9c.8.2 1.5.6 1.9 1.2.5.6 1.1.9 1.8.9V19.4Zm0 0v.2l3.6 16.9c.8-.2 1.6-.1 2.3.3.7.4 1.4.4 1.9.2l-7.7-17.4-.1-.2Z" fill="#FF8A41"/><path d="M12.6 36.9c.6.2 1.2.2 1.9-.2s1.5-.5 2.3-.3l3.6-16.9-7.8 17.4Zm7.9 1.7c.6 0 1.2-.3 1.7-.9.5-.6 1.2-1 1.9-1.2l-3.6-16.9v19Z" fill="#F27729"/><path d="m20.5 19.3.1.2 10.1 14c.7-.5 1.5-.8 2.3-.7.7.1 1.3-.2 1.8-.6L20.6 19.4l-.1-.1Zm0 .1.1.1-.1-.2v.1Zm0-.1.1.1-.1-.1Zm-.1.1v.2l.1-.2-.1-.1v.1Z" fill="#FF8A41"/><path d="M20.5 19.3h-.1l.1.1v-.1Zm-.1 0-.1.1h.1v-.1Zm0-17.9c-.8 0-1.6-.3-2.2-.8-.5-.5-1.2-.7-1.8-.6l4 18.9V1.4Zm13.3 5.9c-.6-.6-1-1.4-1-2.2 0-.7-.3-1.3-.7-1.7L20.6 19.1 33.7 7.3Z" fill="#FF8A41"/><path d="M20.5 19.2 32 3.5c-.5-.5-1.3-.6-2.1-.4-.7.2-1.5.1-2.2-.2L20.6 19l-.1.2Z" fill="#F27729"/><path d="M27.7 2.9C27 2.6 26.3 2 26 1.3 25.7.6 25.2.2 24.6.1l-4 18.9 7.1-16.1Z" fill="#FF8A41"/><path d="m20.5 19.2.1-.2 4-18.9c-.6-.2-1.4 0-2 .5-.6.5-1.4.8-2.2.8V19l.1.2Zm0 .1 19.3-2c0-.7-.4-1.4-1.1-1.8-.6-.4-1.1-1-1.3-1.6l-16.9 5.4Zm0 0 16.9-9.7c-.3-.6-.9-1.1-1.8-1.2-.7-.1-1.4-.5-1.9-1L20.6 19.1l-.1.2Z" fill="#F27729"/><path d="m20.6 19.3 17.5 1.9c0-.9.4-1.7 1-2.3.5-.5.7-1.1.7-1.6l-19.2 2Zm16.8-5.5c-.3-.8-.3-1.7 0-2.5.3-.6.3-1.3 0-1.8l-16.8 9.7 16.8-5.4Z" fill="#FF8A41"/><path d="M33.5 19.3c0 7.2-5.8 13-13 13s-13-5.8-13-13 5.8-13 13-13c7.1 0 13 5.8 13 13Z" fill="#FFC021"/><path d="M20.4 32.8C13 32.8 7 26.7 7 19.3S13 5.8 20.5 5.8c7.4 0 13.5 6 13.5 13.5-.1 7.4-6.1 13.5-13.6 13.5Zm0-26.1c-7 0-12.6 5.7-12.6 12.6 0 7 5.7 12.6 12.6 12.6 7 0 12.6-5.7 12.6-12.6.1-6.9-5.6-12.6-12.6-12.6Z" fill="#F2A416"/></g><defs><clipPath id="a"><path fill="#fff" d="M0 0h40.9v50H0z"/></clipPath></defs></svg>