<svg xmlns="http://www.w3.org/2000/svg" viewBox="0 0 105 30" style="enable-background:new 0 0 105 30" xml:space="preserve"><path d="M17.6 24.3v-6.2h-5.3v6.2h-4l4.9 4.9c1 1 2.6 1 3.6 0l4.9-4.9h-4.1zM5.7 21.7V8.3L.8 13.2c-1 1-1 2.6 0 3.6l4.9 4.9zm6.6-16v6.2h5.3V5.7h4L16.7.8c-1-1-2.6-1-3.6 0L8.3 5.7h4zm16.9 7.5-4.9-4.9v13.4l4.9-4.9c1-1 1-2.6 0-3.6zm14.2-7.6h-4.3v-3c0-.8-.6-1.4-1.4-1.4H34v3.1h1.7V13h3.4V8.9h4.3v4.3h3.4V1.3h-3.4v4.3zm11.3-4.5c-3.6 0-6.2 2.6-6.2 6.1s2.6 6.1 6.2 6.1 6.2-2.6 6.2-6.1-2.6-6.1-6.2-6.1zm0 9c-1.6 0-2.8-1.2-2.8-2.8s1.2-2.8 2.8-2.8c1.6 0 2.8 1.2 2.8 2.8s-1.2 2.8-2.8 2.8zm16.7-3.2c.8-.5 1.4-1.4 1.4-2.4 0-1.8-1.2-3.2-3.6-3.2h-6.7v11.9h6.7c2.5 0 3.9-1.4 3.9-3.4.1-1.3-.6-2.3-1.7-2.9zM65.7 4h2.5c.8 0 1.3.3 1.3 1s-.5 1.1-1.3 1.1h-2.5V4zm2.8 6.6h-2.8V8.4h2.8c.9 0 1.3.4 1.3 1.1 0 .7-.5 1.1-1.3 1.1zm9.9-9.3-4.7 11.9h3.6l.8-2.2h4.8l.8 2.2h3.7L82.6 1.3h-4.2zm.6 7 1.3-3.9h.3l1.3 3.9H79zm-33.5 8.5H34.1v3.1h1.7v8.7h3.4v-8.8h4.3v8.7h3.4V18.2c-.1-.9-.5-1.4-1.4-1.4zm9.2-.2c-3.6 0-6.2 2.6-6.2 6.1s2.6 6.1 6.2 6.1 6.2-2.6 6.2-6.1-2.6-6.1-6.2-6.1zm0 9c-1.6 0-2.8-1.2-2.8-2.8s1.2-2.8 2.8-2.8c1.6 0 2.8 1.2 2.8 2.8s-1.2 2.8-2.8 2.8zm21.1 0h-3.2v-8.7h-3.4v8.7H66v-8.7h-3.4v11.9h16.7v-12h-3.4v8.8zm16.6-5.7v-3.1H80.8v3.1h4.1v8.8h3.4v-8.8h4.1zm8.9 8.8h3.7l-4.7-11.9h-4.2l-4.7 11.9H95l.8-2.2h4.8l.7 2.2zm-4.6-4.9 1.3-3.9h.3l1.3 3.9h-2.9z" style="fill:#da291c"/></svg>