<svg xmlns="http://www.w3.org/2000/svg" viewBox="0 0 93 25" style="enable-background:new 0 0 93 25" xml:space="preserve"><path style="fill:none" d="M.1 0H93v25H.1z"/><path d="m16.3 14.3-8.2-1.9C6 11.9 4.5 10 4.5 7.8c.1-2.2 1.6-4 3.8-4.4s4.2.8 5 2.9c.8 2 0 4.3-1.8 5.5 0 0-.1.1 0 .1 0 0 0 .1.1.1l3.6.8c.1 0 .2 0 .2-.1 1.8-2.3 2.1-5.5.9-8.1S12.5.2 9.5 0h-.3C5.8 0 2.7 1.8 1.1 4.8s-1.4 6.7.6 9.5L9 24.8l.1.1s.1 0 .1-.1l7.2-10.2v-.2c0-.1-.1-.1-.1-.1z" style="fill:#ffc627"/><path d="M23.3 4.9c.1 0 .1 0 .2.1l2.4 4.2h.1L28.1 5c0-.1.1-.2.2-.1h1.5c.1 0 .1 0 .1.1v.2l-4.3 7.6c0 .1-.1.1-.2.1H24c-.2 0-.2-.1-.1-.2l1.1-2-3.4-5.6c-.1-.1 0-.2.1-.2h1.6zm9.2 0c.1 0 .1 0 .2.1 0 0 .1.1.1.2v3.1L36 5c.1-.1.2-.1.4-.1h1.8c.1 0 .2.1.1.2l-3.5 3.3 3.7 4.3s.1.1 0 .1c0 .1-.1.1-.1.1h-1.7c-.1 0-.3 0-.4-.1l-2.8-3.3-.8.7v2.5c0 .1 0 .1-.1.2 0 0-.1.1-.2.1h-1.3c-.1 0-.1 0-.2-.1 0 0-.1-.1-.1-.2V5.1c.2-.1.2-.1.2-.2 0 0 .1-.1.2-.1l1.3.1zm10.7 0c.8 0 1.6.2 2.2.8s.9 1.3.9 2.1c0 1.7-1.3 2.9-3.1 2.9h-2.1v1.9c0 .1 0 .1-.1.2s-.1.1-.2.1h-1.3c-.1 0-.1 0-.2-.1s-.1-.1-.1-.2V5.1c0-.1 0-.1.1-.2 0 0 .1-.1.2-.1l3.7.1zm0 4.2c.4 0 .7-.1 1-.3.3-.3.4-.6.4-1s-.1-.7-.4-1c-.3-.3-.6-.4-1-.3h-2.1v2.6h2.1zm11.1-4.2c.1 0 .1 0 .2.1 0 0 .1.1.1.2v7.6c0 .1 0 .1-.1.2 0 0-.1.1-.2.1H53c-.1 0-.1 0-.2-.1 0 0-.1-.1-.1-.2V6.5h-3.5v6.2c0 .1 0 .1-.1.2 0 0-.1.1-.2.1h-1.3c-.1 0-.1 0-.2-.1 0 0-.1-.1-.1-.2V5.1c0-.1 0-.1.1-.2 0 0 .1-.1.2-.1l6.7.1zm5.8-.1c2.2.1 4 1.9 4 4.2 0 2.3-1.9 4.1-4.1 4-2.2 0-4.1-1.8-4.1-4.1 0-1.1.4-2.2 1.2-2.9.9-.8 1.9-1.2 3-1.2m-2.4 4.1c0 1.4 1.1 2.5 2.5 2.4s2.4-1.1 2.4-2.5-1.1-2.5-2.5-2.5c-.7 0-1.3.2-1.8.7-.4.6-.7 1.2-.6 1.9M70 11.3V5.1c-.1-.1 0-.1 0-.2 0 0 .1-.1.2-.1h1.3c.1 0 .1 0 .2.1 0 0 .1.1.1.2v6.2h2.5V5.1c0-.1 0-.1.1-.2 0 0 .1-.1.2-.1h1.3c.1 0 .1 0 .2.1 0 0 .1.1.1.2v7.6c0 .1 0 .1-.1.2 0 0-.1.1-.2.1H66c-.1 0-.1 0-.1-.1l-.1-.1V5.1c0-.1 0-.1.1-.2 0 0 .1-.1.2-.1h1.3c.1 0 .1 0 .2.1 0 0 .1.1.1.2v6.2H70zm13.8-6.4c.1 0 .1 0 .2.1 0 0 .1.1.1.2v1.2c0 .1 0 .1-.1.2s-.1.1-.2.1h-2.5v6.1c0 .1 0 .1-.1.2 0 0-.1.1-.2.1h-1.3c-.1 0-.1 0-.2-.1 0 0-.1-.1-.1-.2V6.5h-2.5c-.1 0-.1 0-.2-.1 0 0-.1-.1-.1-.2V5.1c0-.1 0-.1.1-.2 0 0 .1-.1.2-.1h6.9v.1zm6.3 6.4h-4l-.6 1.4c0 .1-.1.2-.2.2h-1.4c-.1 0-.2-.1-.1-.2L87.1 5c0-.1.1-.1.2-.1H89c.1 0 .2 0 .2.1l3.3 7.6v.2c0 .1-.1.1-.1.1H91c-.1 0-.3-.1-.3-.2l-.6-1.4zm-3.4-1.5h2.8l-1.3-3.3H88l-1.3 3.3zm-64 9.9v-3.4h2.2v.4h-1.8v3h-.4zm6.1-1.7c0 1-.5 1.8-1.6 1.8s-1.6-.8-1.6-1.8c0-1.1.6-1.8 1.6-1.8s1.6.7 1.6 1.8zM26 18c0 .9.5 1.4 1.2 1.4s1.2-.6 1.2-1.4c0-.8-.5-1.4-1.2-1.4-.8 0-1.2.7-1.2 1.4zm6.3 1.7h-.4v-3h-1.3l-.1 1.9c0 .7-.3 1.2-.8 1.2-.1 0-.2 0-.3-.1v-.4c.1 0 .2.1.2 0 .2 0 .4-.1.4-1l.1-2.1h2.1l.1 3.5zm4.3-1.7c0 1-.5 1.8-1.6 1.8s-1.6-.8-1.6-1.8c0-1.1.6-1.8 1.6-1.8 1.1 0 1.6.7 1.6 1.8zm-2.8 0c0 .9.5 1.4 1.2 1.4s1.2-.6 1.2-1.4c0-.8-.5-1.4-1.2-1.4-.8 0-1.2.7-1.2 1.4zm5.4-1.7c.6 0 1.1.2 1.1.9 0 .3-.2.6-.5.7.4.1.7.5.7.9 0 .8-.6 1-1.3 1h-1.4v-3.4h1.4zm-1.1 1.5h.8c.4 0 .8 0 .8-.5s-.4-.5-.8-.5H38v1h.1zm0 1.5h.9c.4 0 .9 0 .9-.6s-.5-.6-1-.6h-.8v1.2zm6 .4h-.4v-1.6h-1.8v1.6h-.4v-3.4h.4v1.4h1.8v-1.4h.4v3.4zm4.1 0h-.5l-.4-1h-1.4l-.4 1H45l1.3-3.4h.5l1.4 3.4zm-1.5-3-.6 1.6h1.2l-.6-1.6zm7.1 3h-.5v-3h-1.8v3h-.4v-3.4h2.7v3.4zm4.3-1.7c0 1-.5 1.8-1.6 1.8s-1.6-.8-1.6-1.8c0-1.1.6-1.8 1.6-1.8s1.6.7 1.6 1.8zm-2.8 0c0 .9.5 1.4 1.2 1.4s1.2-.6 1.2-1.4c0-.8-.5-1.4-1.2-1.4-.8 0-1.2.7-1.2 1.4zm3.8-1.7h.5v3h1.5v-3h.4v3H63v-3h.5v3.4h-4.4v-3.4zm8.1.4h-1.1v3h-.5v-3h-1.1v-.4h2.7v.4zm3.3 3H70l-.4-1h-1.4l-.4 1h-.5l1.3-3.4h.5l1.4 3.4zm-1.6-3-.6 1.6h1.2l-.6-1.6zm5.8 1 1.5 2h-.6l-1.2-1.8-.6.6v1.2h-.4v-3.4h.4V18l1.7-1.7h.6zm3.8-1.4c.7 0 1.1.3 1.1 1s-.5 1-1.2 1h-.9v1.4h-.4v-3.4h1.4zm-.9 1.6h.9c.4 0 .8-.1.8-.6s-.4-.6-.8-.6h-.8l-.1 1.2zm5.6 1.8h-.5l-.4-1h-1.4l-.4 1H80l1.3-3.4h.5l1.4 3.4zm-1.6-3-.6 1.6h1.2l-.6-1.6zm2.5-.7h-.4v-.5h.4v.5zm.5 3.7h-.4v-3.4h.4v3.4zM85 16h-.4v-.5h.4v.5zm3.5 3.7h-.4v-1.6h-1.8v1.6h-.4v-3.4h.4v1.4h1.8v-1.4h.4v3.4zm1.3-3.4h.4v2.9l1.7-2.9h.5v3.4H92v-2.9l-1.7 2.9h-.5z"/></svg>